<svg id="svg" version="1.1" xmlns="http://www.w3.org/2000/svg" xmlns:xlink="http://www.w3.org/1999/xlink" width="400" height="400" viewBox="0, 0, 400,400"><g id="svgg"><path id="path0" d="M118.758 125.774 C 118.625 125.908,117.365 126.182,115.958 126.384 C 112.770 126.842,111.227 127.166,110.200 127.593 C 109.760 127.776,108.590 128.225,107.600 128.592 C 106.610 128.958,104.810 129.722,103.600 130.290 C 102.390 130.857,100.950 131.499,100.400 131.714 C 98.254 132.557,97.326 133.035,95.362 134.309 L 93.323 135.631 91.424 144.116 C 90.379 148.782,89.161 154.220,88.718 156.200 C 87.785 160.370,87.302 162.755,86.935 165.000 L 86.674 166.600 90.626 162.680 C 95.170 158.173,99.568 155.367,104.597 153.768 C 113.376 150.977,117.683 152.641,120.398 159.875 C 121.299 162.276,120.424 171.391,118.418 180.500 C 118.188 181.545,117.812 183.255,117.582 184.300 C 117.352 185.345,117.001 187.010,116.802 188.000 C 116.146 191.270,115.611 193.776,115.177 195.600 C 114.942 196.590,114.590 198.210,114.396 199.200 C 113.818 202.135,113.233 204.882,112.777 206.800 C 112.542 207.790,112.189 209.410,111.993 210.400 C 111.477 213.007,110.956 215.493,110.400 218.000 C 110.132 219.210,109.752 220.965,109.556 221.900 C 109.360 222.835,109.040 224.365,108.844 225.300 C 108.648 226.235,108.268 227.990,108.000 229.200 C 107.732 230.410,107.372 232.120,107.200 233.000 C 106.899 234.540,106.320 237.224,105.559 240.600 C 105.360 241.480,105.019 243.100,104.800 244.200 C 104.581 245.300,104.240 246.920,104.041 247.800 C 103.843 248.680,103.491 250.300,103.259 251.400 C 103.027 252.500,102.468 255.110,102.017 257.200 C 100.175 265.724,99.974 266.834,100.206 267.209 C 100.357 267.454,106.793 267.600,117.410 267.600 C 136.744 267.600,134.875 267.982,135.646 263.873 C 135.860 262.733,136.215 260.990,136.436 260.000 C 136.656 259.010,136.999 257.390,137.198 256.400 C 137.702 253.885,138.407 250.492,138.818 248.600 C 139.009 247.720,139.369 246.010,139.618 244.800 C 139.867 243.590,140.235 241.835,140.435 240.900 C 140.636 239.965,140.959 238.435,141.153 237.500 C 141.348 236.565,141.909 233.910,142.400 231.600 C 142.891 229.290,143.452 226.635,143.647 225.700 C 143.841 224.765,144.159 223.235,144.353 222.300 C 144.548 221.365,145.109 218.710,145.600 216.400 C 146.091 214.090,146.652 211.435,146.847 210.500 C 147.041 209.565,147.363 208.035,147.563 207.100 C 147.763 206.165,148.117 204.410,148.351 203.200 C 148.584 201.990,149.148 199.290,149.604 197.200 C 150.061 195.110,150.775 191.690,151.193 189.600 C 154.042 175.329,154.552 174.156,160.627 167.893 C 170.549 157.663,180.329 153.316,187.740 155.841 C 193.021 157.641,193.221 162.875,188.800 183.600 C 188.354 185.690,187.812 188.300,187.596 189.400 C 187.379 190.500,187.021 192.210,186.800 193.200 C 186.579 194.190,186.219 195.900,186.000 197.000 C 185.781 198.100,185.421 199.810,185.200 200.800 C 184.979 201.790,184.602 203.590,184.362 204.800 C 184.122 206.010,183.763 207.765,183.563 208.700 C 183.363 209.635,183.040 211.165,182.844 212.100 C 182.648 213.035,182.268 214.790,182.000 216.000 C 181.485 218.323,180.999 220.631,180.400 223.600 C 179.801 226.569,179.315 228.877,178.800 231.200 C 177.937 235.093,177.560 236.969,177.353 238.400 C 177.242 239.170,176.993 240.160,176.800 240.600 C 176.607 241.040,176.356 242.030,176.241 242.800 C 176.009 244.363,175.449 247.235,174.818 250.100 C 174.588 251.145,174.212 252.855,173.982 253.900 C 173.752 254.945,173.392 256.655,173.182 257.700 C 172.972 258.745,172.628 260.455,172.418 261.500 C 171.339 266.873,171.314 267.158,171.899 267.383 C 172.817 267.735,203.351 267.619,203.915 267.261 C 204.199 267.081,204.876 264.789,205.420 262.167 C 206.774 255.637,207.944 250.045,208.800 246.000 C 209.196 244.130,209.916 240.710,210.400 238.400 C 210.884 236.090,211.625 232.580,212.047 230.600 C 212.468 228.620,212.998 226.100,213.224 225.000 C 213.752 222.431,214.104 220.754,215.200 215.600 C 216.299 210.431,216.639 208.812,217.218 206.000 C 217.467 204.790,217.835 203.035,218.035 202.100 C 218.236 201.165,218.564 199.635,218.765 198.700 C 218.965 197.765,219.333 196.010,219.581 194.800 C 220.434 190.637,221.225 186.905,222.018 183.300 C 222.248 182.255,222.525 180.860,222.634 180.200 C 223.130 177.205,224.926 173.268,226.376 172.000 C 226.502 171.890,227.141 171.080,227.796 170.200 C 236.064 159.099,249.835 152.517,257.234 156.129 C 260.326 157.638,261.230 163.165,259.667 171.000 C 259.448 172.100,259.058 174.170,258.800 175.600 C 258.542 177.030,258.182 179.010,258.000 180.000 C 257.818 180.990,257.458 182.970,257.200 184.400 C 256.942 185.830,256.582 187.810,256.400 188.800 C 256.218 189.790,255.875 191.680,255.639 193.000 C 255.403 194.320,255.046 196.120,254.845 197.000 C 254.645 197.880,254.264 199.590,254.000 200.800 C 253.736 202.010,253.376 203.630,253.200 204.400 C 253.024 205.170,252.520 207.420,252.079 209.400 C 251.638 211.380,250.708 215.520,250.011 218.600 C 244.264 243.998,244.934 255.014,252.724 263.272 C 260.021 271.008,275.118 273.523,288.400 269.217 C 288.950 269.039,290.210 268.660,291.200 268.376 C 292.190 268.091,293.180 267.755,293.400 267.629 C 293.620 267.503,294.408 267.220,295.152 267.000 C 296.823 266.506,296.744 266.755,300.109 251.500 C 302.571 240.339,302.621 240.000,301.803 240.000 C 301.339 240.000,300.789 240.156,300.580 240.346 C 299.895 240.968,296.497 241.600,293.831 241.600 C 286.564 241.600,284.437 237.489,286.381 227.200 C 286.610 225.990,286.971 224.010,287.185 222.800 C 287.611 220.386,288.214 217.239,288.813 214.300 C 289.026 213.255,289.386 211.455,289.613 210.300 C 290.100 207.822,290.617 205.289,291.145 202.800 C 291.354 201.810,291.739 199.920,292.000 198.600 C 292.261 197.280,292.621 195.480,292.800 194.600 C 292.979 193.720,293.339 191.920,293.600 190.600 C 293.861 189.280,294.221 187.480,294.400 186.600 C 294.579 185.720,294.918 184.010,295.154 182.800 C 295.567 180.678,295.994 178.962,296.849 176.000 C 297.531 173.638,298.000 171.508,298.390 169.000 C 298.595 167.680,299.057 164.710,299.416 162.400 C 302.082 145.230,297.611 134.525,285.400 128.843 C 284.300 128.331,283.087 127.752,282.705 127.556 C 282.323 127.360,281.736 127.200,281.400 127.200 C 281.064 127.200,280.477 127.039,280.095 126.843 C 277.810 125.669,269.757 125.237,264.846 126.025 C 260.131 126.781,257.814 127.263,257.105 127.635 C 256.723 127.836,255.994 128.000,255.485 128.000 C 254.976 128.000,254.389 128.143,254.180 128.318 C 253.971 128.493,253.080 128.868,252.200 129.152 C 244.654 131.580,234.489 138.430,229.524 144.433 C 227.789 146.530,226.800 146.527,226.800 144.424 C 226.800 143.557,226.620 142.736,226.400 142.600 C 226.180 142.464,226.000 141.911,226.000 141.371 C 226.000 140.831,225.835 140.077,225.634 139.695 C 225.432 139.313,224.995 138.369,224.662 137.599 C 221.507 130.299,210.659 125.173,199.576 125.745 C 193.505 126.059,186.962 127.014,186.573 127.644 C 186.452 127.840,185.911 128.000,185.371 128.000 C 184.831 128.000,184.032 128.180,183.595 128.400 C 183.158 128.620,182.442 128.980,182.005 129.200 C 181.568 129.420,180.983 129.602,180.705 129.603 C 179.406 129.612,167.233 136.536,166.000 137.968 C 165.890 138.095,164.900 138.904,163.800 139.765 C 162.700 140.625,160.869 142.225,159.732 143.320 C 157.489 145.477,156.679 145.573,156.222 143.732 C 154.416 136.448,146.231 129.667,136.000 126.981 C 132.499 126.062,119.386 125.144,118.758 125.774 M0.000 399.400 C 0.000 399.933,22.489 400.000,200.000 400.000 C 377.511 400.000,400.000 399.933,400.000 399.400 C 400.000 398.867,377.511 398.800,200.000 398.800 C 22.489 398.800,0.000 398.867,0.000 399.400 " stroke="none" fill="#fbfbfb" fill-rule="evenodd"></path><path id="path1" d="M0.000 199.000 L 0.000 398.000 200.000 398.000 L 400.000 398.000 400.000 199.000 L 400.000 0.000 200.000 0.000 L 0.000 0.000 0.000 199.000 M132.874 125.644 C 133.244 125.840,134.179 126.000,134.950 126.000 C 135.722 126.000,136.464 126.180,136.600 126.400 C 136.736 126.620,137.289 126.800,137.829 126.800 C 138.369 126.800,139.123 126.961,139.505 127.158 C 139.887 127.355,141.460 128.119,143.000 128.856 C 144.540 129.593,145.860 130.332,145.933 130.498 C 146.007 130.664,146.251 130.800,146.476 130.800 C 146.700 130.800,147.377 131.205,147.980 131.700 C 148.582 132.195,149.745 133.124,150.564 133.765 C 152.496 135.278,155.229 139.192,156.379 142.094 L 157.288 144.389 158.344 143.562 C 158.925 143.107,160.120 142.072,161.000 141.262 C 162.889 139.524,167.885 135.600,168.208 135.600 C 168.332 135.600,168.651 135.416,168.917 135.192 C 170.809 133.594,178.921 129.200,179.980 129.200 C 180.217 129.200,180.768 129.020,181.205 128.800 C 181.642 128.580,182.358 128.220,182.795 128.000 C 183.232 127.780,183.941 127.600,184.371 127.600 C 184.801 127.600,185.252 127.440,185.373 127.244 C 185.494 127.049,186.269 126.774,187.096 126.633 C 187.923 126.493,189.590 126.192,190.800 125.964 C 197.176 124.761,210.178 125.070,211.027 126.444 C 211.148 126.640,211.552 126.799,211.924 126.797 C 212.803 126.792,219.200 130.011,219.200 130.458 C 219.200 130.646,219.425 130.800,219.700 130.800 C 220.773 130.802,224.800 135.517,224.800 136.772 C 224.800 137.007,224.980 137.200,225.200 137.200 C 225.420 137.200,225.600 137.549,225.600 137.976 C 225.600 138.403,225.780 138.864,226.000 139.000 C 226.220 139.136,226.400 139.676,226.400 140.200 C 226.400 140.724,226.580 141.264,226.800 141.400 C 227.020 141.536,227.200 142.342,227.200 143.190 C 227.200 145.494,227.679 145.317,231.502 141.600 C 233.426 139.730,236.170 137.335,237.600 136.277 C 239.030 135.220,240.482 134.140,240.827 133.878 C 242.258 132.787,246.246 130.707,249.200 129.511 C 249.750 129.289,250.513 128.948,250.895 128.753 C 251.277 128.559,251.941 128.400,252.371 128.400 C 252.801 128.400,253.264 128.220,253.400 128.000 C 253.536 127.780,254.076 127.600,254.600 127.600 C 255.124 127.600,255.652 127.440,255.773 127.244 C 255.894 127.049,256.669 126.774,257.496 126.633 C 258.323 126.493,259.990 126.178,261.200 125.933 C 265.550 125.051,280.403 125.434,281.027 126.444 C 281.148 126.640,281.599 126.800,282.029 126.800 C 282.459 126.800,283.123 126.957,283.505 127.150 C 283.887 127.342,285.010 127.906,286.000 128.403 C 289.936 130.379,291.021 131.078,293.135 133.000 C 301.457 140.566,303.065 156.735,297.444 176.332 C 296.897 178.240,295.361 185.290,294.031 192.000 C 290.935 207.611,290.801 208.287,290.400 210.200 C 290.216 211.080,289.856 212.880,289.600 214.200 C 289.344 215.520,288.984 217.320,288.800 218.200 C 288.616 219.080,288.279 220.790,288.051 222.000 C 287.823 223.210,287.408 225.370,287.129 226.800 C 286.097 232.084,286.442 237.393,287.917 238.914 C 289.800 240.857,293.741 241.730,296.640 240.847 C 297.278 240.652,298.610 240.261,299.600 239.977 C 300.590 239.693,301.571 239.312,301.780 239.130 C 303.722 237.442,303.587 239.497,301.029 250.600 C 300.015 255.000,298.907 259.927,298.566 261.548 C 297.543 266.426,297.131 267.385,296.000 267.517 C 295.450 267.581,294.595 267.806,294.100 268.017 C 292.229 268.814,291.348 269.123,289.600 269.596 C 288.610 269.864,287.387 270.245,286.881 270.442 C 286.376 270.639,285.329 270.800,284.555 270.800 C 283.781 270.800,282.801 270.986,282.377 271.213 C 280.421 272.259,265.516 271.598,263.105 270.357 C 262.723 270.161,262.157 270.000,261.846 270.000 C 260.388 270.000,254.258 266.177,252.126 263.938 C 243.553 254.935,243.482 242.533,251.802 207.400 C 253.199 201.502,254.613 194.708,255.632 189.000 C 255.868 187.680,256.213 185.790,256.400 184.800 C 256.587 183.810,256.947 181.830,257.200 180.400 C 257.453 178.970,257.813 176.990,258.000 176.000 C 258.187 175.010,258.548 173.030,258.802 171.600 C 259.056 170.170,259.430 168.136,259.632 167.080 C 260.503 162.534,259.397 157.710,257.283 156.834 C 249.282 153.520,238.077 158.702,228.800 170.007 C 227.810 171.213,226.865 172.260,226.700 172.333 C 226.535 172.407,226.400 172.688,226.400 172.958 C 226.400 173.228,226.085 173.798,225.700 174.225 C 224.558 175.489,223.573 178.140,223.034 181.400 C 222.925 182.060,222.639 183.500,222.400 184.600 C 221.734 187.650,221.189 190.450,220.959 192.000 C 220.844 192.770,220.593 193.760,220.400 194.200 C 220.207 194.640,219.948 195.675,219.825 196.500 C 219.701 197.325,219.499 198.675,219.375 199.500 C 219.252 200.325,218.993 201.360,218.800 201.800 C 218.607 202.240,218.348 203.275,218.225 204.100 C 218.101 204.925,217.899 206.275,217.775 207.100 C 217.652 207.925,217.393 208.960,217.200 209.400 C 217.007 209.840,216.756 210.830,216.641 211.600 C 216.427 213.040,215.926 215.642,215.254 218.800 C 215.043 219.790,214.667 221.590,214.418 222.800 C 214.169 224.010,213.785 225.810,213.564 226.800 C 213.344 227.790,213.001 229.410,212.802 230.400 C 212.260 233.103,211.652 235.987,211.201 238.000 C 210.979 238.990,210.602 240.790,210.362 242.000 C 210.122 243.210,209.770 244.920,209.580 245.800 C 209.390 246.680,209.048 248.300,208.820 249.400 C 208.592 250.500,208.223 252.210,208.001 253.200 C 207.779 254.190,207.419 255.900,207.200 257.000 C 206.981 258.100,206.621 259.810,206.400 260.800 C 206.179 261.790,205.829 263.537,205.623 264.681 C 204.885 268.777,206.714 268.400,187.594 268.400 L 170.815 268.400 170.570 267.423 C 170.435 266.885,170.466 266.217,170.639 265.937 C 170.811 265.658,171.098 264.658,171.276 263.715 C 171.454 262.772,171.788 261.145,172.018 260.100 C 172.649 257.235,173.209 254.363,173.441 252.800 C 173.556 252.030,173.807 251.040,174.000 250.600 C 174.193 250.160,174.442 249.170,174.553 248.400 C 174.664 247.630,174.957 246.100,175.204 245.000 C 175.450 243.900,175.749 242.280,175.867 241.400 C 175.985 240.520,176.244 239.629,176.441 239.420 C 176.638 239.211,176.800 238.302,176.800 237.400 C 176.800 236.498,176.962 235.589,177.159 235.380 C 177.356 235.171,177.620 234.280,177.744 233.400 C 178.298 229.469,178.471 228.551,178.800 227.800 C 178.993 227.360,179.252 226.325,179.375 225.500 C 179.499 224.675,179.701 223.325,179.825 222.500 C 179.948 221.675,180.207 220.640,180.400 220.200 C 180.593 219.760,180.844 218.770,180.959 218.000 C 181.191 216.437,181.751 213.565,182.382 210.700 C 183.229 206.852,184.045 202.975,184.802 199.200 C 185.001 198.210,185.352 196.545,185.582 195.500 C 186.199 192.698,186.674 190.471,187.182 188.000 C 187.431 186.790,187.790 185.080,187.980 184.200 C 192.727 162.226,192.415 157.643,186.075 156.158 C 179.345 154.582,169.409 159.415,161.200 168.258 C 155.334 174.577,154.848 175.487,153.223 183.200 C 152.242 187.860,148.903 203.877,146.720 214.400 C 145.831 218.690,144.944 222.920,144.750 223.800 C 144.556 224.680,144.219 226.300,144.000 227.400 C 143.781 228.500,143.421 230.210,143.200 231.200 C 142.979 232.190,142.619 233.900,142.400 235.000 C 142.181 236.100,141.821 237.810,141.600 238.800 C 141.379 239.790,141.002 241.590,140.762 242.800 C 140.522 244.010,140.170 245.720,139.980 246.600 C 139.790 247.480,139.448 249.100,139.220 250.200 C 138.992 251.300,138.623 253.010,138.401 254.000 C 138.179 254.990,137.802 256.790,137.562 258.000 C 137.322 259.210,136.963 260.965,136.763 261.900 C 136.563 262.835,136.250 264.400,136.067 265.379 C 135.460 268.616,136.816 268.400,117.138 268.400 C 103.272 268.400,99.534 268.293,99.379 267.890 C 99.272 267.609,99.748 264.684,100.439 261.390 C 101.129 258.095,101.844 254.680,102.028 253.800 C 102.211 252.920,102.733 250.490,103.189 248.400 C 103.644 246.310,104.184 243.790,104.390 242.800 C 104.595 241.810,105.136 239.290,105.594 237.200 C 106.051 235.110,106.599 232.500,106.811 231.400 C 107.024 230.300,107.360 228.680,107.559 227.800 C 108.143 225.209,108.862 221.924,109.244 220.100 C 109.440 219.165,109.764 217.635,109.965 216.700 C 110.165 215.765,110.533 214.010,110.782 212.800 C 111.031 211.590,111.407 209.835,111.617 208.900 C 112.114 206.693,112.620 204.334,113.182 201.600 C 113.431 200.390,113.807 198.635,114.017 197.700 C 114.514 195.493,115.020 193.134,115.582 190.400 C 115.831 189.190,116.199 187.480,116.400 186.600 C 116.601 185.720,116.969 184.010,117.218 182.800 C 117.467 181.590,117.847 179.790,118.063 178.800 C 118.280 177.810,118.615 175.830,118.809 174.400 C 119.003 172.970,119.363 170.360,119.610 168.600 C 120.439 162.674,119.625 158.121,117.259 155.457 C 112.438 150.029,97.626 155.117,89.022 165.159 C 86.089 168.581,84.606 168.561,85.962 165.119 C 86.161 164.613,86.534 163.120,86.792 161.800 C 87.049 160.480,87.415 158.770,87.605 158.000 C 87.949 156.603,88.468 154.317,89.172 151.100 C 89.377 150.165,89.749 148.500,90.000 147.400 C 90.251 146.300,90.623 144.635,90.828 143.700 C 92.871 134.362,92.518 135.130,95.641 133.259 C 97.164 132.347,98.668 131.600,98.982 131.600 C 99.296 131.600,99.664 131.420,99.800 131.200 C 99.936 130.980,100.372 130.800,100.768 130.800 C 101.165 130.800,102.889 130.080,104.600 129.200 C 106.311 128.320,108.035 127.600,108.432 127.600 C 108.828 127.600,109.251 127.441,109.371 127.246 C 109.492 127.051,110.087 126.790,110.695 126.664 C 111.303 126.539,112.700 126.235,113.800 125.990 C 118.181 125.013,131.231 124.776,132.874 125.644 " stroke="none" fill="#146ce4" fill-rule="evenodd"></path><path id="path2" d="M120.105 125.487 C 120.714 125.579,121.614 125.577,122.105 125.482 C 122.597 125.387,122.100 125.311,121.000 125.314 C 119.900 125.317,119.497 125.395,120.105 125.487 M126.505 125.487 C 127.114 125.579,128.014 125.577,128.505 125.482 C 128.997 125.387,128.500 125.311,127.400 125.314 C 126.300 125.317,125.897 125.395,126.505 125.487 M197.500 125.482 C 197.995 125.578,198.805 125.578,199.300 125.482 C 199.795 125.387,199.390 125.309,198.400 125.309 C 197.410 125.309,197.005 125.387,197.500 125.482 M202.900 125.476 C 203.285 125.576,203.915 125.576,204.300 125.476 C 204.685 125.375,204.370 125.293,203.600 125.293 C 202.830 125.293,202.515 125.375,202.900 125.476 M267.705 125.487 C 268.314 125.579,269.214 125.577,269.705 125.482 C 270.197 125.387,269.700 125.311,268.600 125.314 C 267.500 125.317,267.097 125.395,267.705 125.487 M273.105 125.483 C 273.602 125.579,274.322 125.575,274.705 125.475 C 275.087 125.375,274.680 125.296,273.800 125.301 C 272.920 125.305,272.607 125.387,273.105 125.483 M99.862 267.700 C 99.964 267.865,107.856 268.000,117.400 268.000 C 126.944 268.000,134.836 267.865,134.938 267.700 C 135.040 267.535,127.148 267.400,117.400 267.400 C 107.652 267.400,99.760 267.535,99.862 267.700 M171.062 267.700 C 171.164 267.865,178.696 268.000,187.800 268.000 C 196.904 268.000,204.436 267.865,204.538 267.700 C 204.640 267.535,197.108 267.400,187.800 267.400 C 178.492 267.400,170.960 267.535,171.062 267.700 " stroke="none" fill="#84b4f4" fill-rule="evenodd"></path><path id="path3" d="M115.800 125.620 C 115.261 125.865,115.654 125.905,117.000 125.741 C 118.100 125.607,119.075 125.431,119.167 125.349 C 119.517 125.036,116.561 125.274,115.800 125.620 M129.233 125.347 C 129.325 125.428,130.279 125.588,131.354 125.704 C 132.549 125.832,133.093 125.778,132.754 125.563 C 132.235 125.235,128.871 125.028,129.233 125.347 M192.846 125.563 C 192.505 125.779,193.042 125.841,194.246 125.724 C 196.955 125.460,197.333 125.268,195.200 125.238 C 194.210 125.224,193.151 125.370,192.846 125.563 M204.833 125.345 C 204.925 125.425,205.801 125.592,206.779 125.718 C 207.930 125.865,208.354 125.816,207.979 125.579 C 207.445 125.240,204.458 125.019,204.833 125.345 M263.246 125.563 C 262.907 125.778,263.451 125.832,264.646 125.704 C 265.721 125.588,266.675 125.428,266.767 125.347 C 267.129 125.028,263.765 125.235,263.246 125.563 M275.233 125.343 C 275.325 125.422,276.120 125.597,277.000 125.732 C 278.090 125.899,278.409 125.855,278.000 125.595 C 277.453 125.246,274.845 125.009,275.233 125.343 M112.000 126.418 C 111.562 126.715,111.724 126.752,112.600 126.556 C 114.071 126.227,114.390 125.998,113.367 126.006 C 112.945 126.009,112.330 126.195,112.000 126.418 M135.400 126.400 C 136.501 126.873,136.892 126.873,136.600 126.400 C 136.464 126.180,135.958 126.013,135.476 126.028 C 134.631 126.055,134.629 126.069,135.400 126.400 M188.400 126.418 C 187.962 126.715,188.124 126.752,189.000 126.556 C 190.471 126.227,190.790 125.998,189.767 126.006 C 189.345 126.009,188.730 126.195,188.400 126.418 M258.800 126.406 C 258.378 126.682,258.615 126.723,259.600 126.542 C 261.325 126.225,261.651 125.998,260.367 126.006 C 259.835 126.009,259.130 126.189,258.800 126.406 M185.400 127.200 C 185.108 127.673,185.499 127.673,186.600 127.200 C 187.371 126.869,187.369 126.855,186.524 126.828 C 186.042 126.813,185.536 126.980,185.400 127.200 M255.800 127.200 C 255.508 127.673,255.899 127.673,257.000 127.200 C 257.771 126.869,257.769 126.855,256.924 126.828 C 256.442 126.813,255.936 126.980,255.800 127.200 M217.776 129.813 C 218.204 130.136,218.733 130.400,218.953 130.400 C 219.173 130.400,219.004 130.136,218.576 129.813 C 218.149 129.490,217.620 129.225,217.400 129.225 C 217.180 129.225,217.349 129.490,217.776 129.813 M289.962 130.900 C 292.550 132.624,294.941 135.016,296.462 137.400 C 297.304 138.720,297.994 139.661,297.996 139.492 C 298.018 137.688,290.678 130.000,288.934 130.000 C 288.756 130.000,289.219 130.405,289.962 130.900 M219.820 131.101 C 220.029 131.267,220.912 132.032,221.783 132.801 C 222.653 133.570,223.103 133.840,222.783 133.400 C 221.976 132.291,220.278 130.801,219.820 130.800 C 219.580 130.800,219.580 130.911,219.820 131.101 M173.200 132.433 L 172.200 133.248 173.500 132.614 C 174.215 132.265,174.800 131.894,174.800 131.790 C 174.800 131.392,174.163 131.648,173.200 132.433 M95.900 133.029 C 94.405 133.840,94.496 134.178,96.000 133.400 C 96.660 133.059,97.200 132.694,97.200 132.590 C 97.200 132.332,97.157 132.347,95.900 133.029 M150.800 134.176 C 150.800 134.298,151.548 135.164,152.462 136.099 L 154.123 137.800 152.832 136.106 C 151.579 134.460,150.800 133.720,150.800 134.176 M169.700 134.488 C 169.205 134.727,168.800 135.079,168.800 135.270 C 168.800 135.462,169.250 135.324,169.800 134.963 C 171.267 134.002,171.216 133.757,169.700 134.488 M166.962 136.462 L 166.200 137.324 167.300 136.616 C 168.434 135.886,168.649 135.600,168.062 135.600 C 167.876 135.600,167.381 135.988,166.962 136.462 M92.229 137.029 C 92.081 137.615,92.038 138.172,92.132 138.266 C 92.227 138.360,92.424 137.958,92.571 137.371 C 92.719 136.785,92.762 136.228,92.668 136.134 C 92.573 136.040,92.376 136.442,92.229 137.029 M164.400 138.449 C 163.006 139.671,163.005 139.672,164.288 138.819 C 164.996 138.348,165.682 137.791,165.812 137.581 C 166.197 136.957,165.877 137.154,164.400 138.449 M91.429 140.629 C 91.281 141.215,91.238 141.772,91.332 141.866 C 91.427 141.960,91.624 141.558,91.771 140.971 C 91.919 140.385,91.962 139.828,91.868 139.734 C 91.773 139.640,91.576 140.042,91.429 140.629 M230.788 142.300 L 228.200 145.000 230.900 142.412 C 232.385 140.988,233.600 139.773,233.600 139.712 C 233.600 139.417,233.193 139.792,230.788 142.300 M159.617 142.424 C 157.443 144.404,157.432 144.408,156.931 143.506 C 156.655 143.008,156.422 142.791,156.414 143.024 C 156.346 145.061,157.518 144.946,159.853 142.687 C 162.743 139.891,162.589 139.718,159.617 142.424 M90.629 144.229 C 90.481 144.815,90.438 145.372,90.532 145.466 C 90.627 145.560,90.824 145.158,90.971 144.571 C 91.119 143.985,91.162 143.428,91.068 143.334 C 90.973 143.240,90.776 143.642,90.629 144.229 M299.256 143.600 C 299.256 143.930,299.411 144.560,299.600 145.000 C 299.817 145.504,299.944 145.578,299.944 145.200 C 299.944 144.870,299.789 144.240,299.600 143.800 C 299.383 143.296,299.256 143.222,299.256 143.600 M300.281 149.200 C 300.404 150.850,300.571 152.275,300.652 152.367 C 300.931 152.681,300.754 149.401,300.406 147.800 C 300.148 146.614,300.116 146.976,300.281 149.200 M89.829 147.829 C 89.681 148.415,89.638 148.972,89.732 149.066 C 89.827 149.160,90.024 148.758,90.171 148.171 C 90.319 147.585,90.362 147.028,90.268 146.934 C 90.173 146.840,89.976 147.242,89.829 147.829 M89.029 151.429 C 88.881 152.015,88.838 152.572,88.932 152.666 C 89.027 152.760,89.224 152.358,89.371 151.771 C 89.519 151.185,89.562 150.628,89.468 150.534 C 89.373 150.440,89.176 150.842,89.029 151.429 M110.905 153.087 C 111.514 153.179,112.414 153.177,112.905 153.082 C 113.397 152.987,112.900 152.911,111.800 152.914 C 110.700 152.917,110.297 152.995,110.905 153.087 M106.600 153.600 C 105.581 154.038,106.632 154.038,108.000 153.600 C 108.804 153.343,108.843 153.277,108.200 153.268 C 107.760 153.262,107.040 153.411,106.600 153.600 M88.229 155.029 C 88.081 155.615,88.038 156.172,88.132 156.266 C 88.227 156.360,88.424 155.958,88.571 155.371 C 88.719 154.785,88.762 154.228,88.668 154.134 C 88.573 154.040,88.376 154.442,88.229 155.029 M116.076 154.419 C 116.448 154.636,117.211 155.395,117.772 156.106 C 118.332 156.818,118.793 157.271,118.796 157.114 C 118.803 156.608,116.333 154.000,115.859 154.012 C 115.606 154.019,115.704 154.202,116.076 154.419 M99.500 156.229 C 98.005 157.040,98.096 157.378,99.600 156.600 C 100.260 156.259,100.800 155.894,100.800 155.790 C 100.800 155.532,100.757 155.547,99.500 156.229 M179.400 156.014 C 178.878 156.248,179.363 156.288,180.800 156.132 C 182.010 156.000,183.075 155.826,183.167 155.746 C 183.521 155.436,180.157 155.675,179.400 156.014 M184.433 155.747 C 184.525 155.828,185.320 156.004,186.200 156.138 C 187.315 156.307,187.558 156.271,187.000 156.019 C 186.232 155.671,184.090 155.444,184.433 155.747 M248.200 156.010 C 247.666 156.247,247.998 156.286,249.200 156.127 C 250.190 155.996,251.075 155.824,251.167 155.744 C 251.514 155.443,248.964 155.672,248.200 156.010 M252.433 155.744 C 252.525 155.823,253.500 155.991,254.600 156.118 C 255.887 156.267,256.315 156.226,255.800 156.003 C 255.036 155.672,252.086 155.445,252.433 155.744 M300.188 158.988 C 300.031 160.664,299.989 162.123,300.095 162.229 C 300.201 162.334,300.412 161.046,300.565 159.365 C 300.717 157.684,300.759 156.226,300.658 156.124 C 300.557 156.023,300.345 157.312,300.188 158.988 M87.473 158.153 C 87.323 158.545,87.211 159.166,87.225 159.533 C 87.242 159.975,87.381 159.874,87.637 159.234 C 87.849 158.703,87.961 158.082,87.885 157.854 C 87.809 157.627,87.624 157.761,87.473 158.153 M259.142 159.387 C 259.492 160.360,259.846 161.088,259.929 161.005 C 260.148 160.785,259.199 158.047,258.824 157.815 C 258.649 157.707,258.792 158.414,259.142 159.387 M172.500 158.488 C 172.005 158.727,171.600 159.079,171.600 159.270 C 171.600 159.546,172.822 158.952,173.967 158.121 C 174.366 157.831,173.320 158.093,172.500 158.488 M92.476 161.500 C 90.002 163.956,90.514 163.575,94.400 160.067 C 95.170 159.372,95.664 158.803,95.497 158.802 C 95.331 158.801,93.971 160.015,92.476 161.500 M239.900 159.429 C 238.405 160.240,238.496 160.578,240.000 159.800 C 240.660 159.459,241.200 159.094,241.200 158.990 C 241.200 158.732,241.157 158.747,239.900 159.429 M119.791 164.643 C 119.786 168.063,119.893 169.585,120.068 168.600 C 120.431 166.566,120.435 162.659,120.077 160.643 C 119.912 159.714,119.797 161.325,119.791 164.643 M236.351 162.034 L 234.600 163.668 236.500 162.186 C 238.236 160.832,238.659 160.400,238.251 160.400 C 238.170 160.400,237.315 161.135,236.351 162.034 M191.331 163.400 C 191.333 164.940,191.405 165.521,191.492 164.691 C 191.579 163.861,191.577 162.601,191.489 161.891 C 191.400 161.181,191.329 161.860,191.331 163.400 M86.629 162.229 C 86.481 162.815,86.438 163.372,86.532 163.466 C 86.627 163.560,86.824 163.158,86.971 162.571 C 87.119 161.985,87.162 161.428,87.068 161.334 C 86.973 161.240,86.776 161.642,86.629 162.229 M166.800 162.834 L 165.000 164.465 166.900 162.984 C 168.566 161.686,169.059 161.197,168.700 161.201 C 168.645 161.202,167.790 161.936,166.800 162.834 M260.120 163.600 C 260.120 164.810,260.195 165.305,260.287 164.700 C 260.378 164.095,260.378 163.105,260.287 162.500 C 260.195 161.895,260.120 162.390,260.120 163.600 M299.469 164.356 C 299.321 165.095,299.220 166.083,299.244 166.550 C 299.268 167.018,299.447 166.590,299.642 165.600 C 299.837 164.610,299.938 163.623,299.867 163.406 C 299.796 163.190,299.617 163.617,299.469 164.356 M160.829 168.256 C 158.821 170.377,157.278 172.211,157.399 172.332 C 157.520 172.453,157.918 172.113,158.285 171.576 C 158.651 171.039,160.298 169.205,161.945 167.500 C 163.591 165.795,164.835 164.400,164.708 164.400 C 164.582 164.400,162.836 166.135,160.829 168.256 M85.843 165.433 C 84.722 168.353,86.329 168.449,88.590 165.597 C 89.024 165.049,88.597 165.320,87.641 166.200 L 85.903 167.800 86.170 166.300 C 86.443 164.759,86.274 164.309,85.843 165.433 M259.400 168.000 C 259.245 169.128,259.202 170.136,259.306 170.239 C 259.409 170.342,259.616 169.500,259.767 168.367 C 259.917 167.234,259.959 166.226,259.861 166.128 C 259.763 166.029,259.555 166.872,259.400 168.000 M228.500 169.793 C 227.565 170.946,226.800 172.021,226.800 172.182 C 226.800 172.342,227.629 171.456,228.642 170.212 C 229.655 168.968,230.420 167.893,230.342 167.823 C 230.264 167.753,229.435 168.640,228.500 169.793 M298.669 169.156 C 298.521 169.895,298.420 170.883,298.444 171.350 C 298.468 171.817,298.647 171.390,298.842 170.400 C 299.037 169.410,299.138 168.423,299.067 168.206 C 298.996 167.990,298.817 168.417,298.669 169.156 M190.649 169.415 C 190.512 169.773,190.416 170.456,190.436 170.933 C 190.462 171.547,190.585 171.408,190.859 170.456 C 191.257 169.072,191.094 168.258,190.649 169.415 M119.049 171.815 C 118.912 172.173,118.824 173.306,118.852 174.333 C 118.905 176.188,118.907 176.185,119.213 173.800 C 119.532 171.318,119.480 170.692,119.049 171.815 M258.493 173.600 C 258.493 174.370,258.575 174.685,258.676 174.300 C 258.776 173.915,258.776 173.285,258.676 172.900 C 258.575 172.515,258.493 172.830,258.493 173.600 M225.632 173.539 C 224.979 174.760,225.114 175.100,225.841 174.063 C 226.193 173.560,226.388 173.054,226.273 172.940 C 226.159 172.825,225.870 173.095,225.632 173.539 M297.849 173.415 C 297.712 173.773,297.615 174.366,297.634 174.733 C 297.653 175.100,297.827 174.869,298.021 174.220 C 298.398 172.958,298.265 172.333,297.849 173.415 M189.849 174.215 C 189.712 174.573,189.616 175.256,189.636 175.733 C 189.662 176.347,189.785 176.208,190.059 175.256 C 190.457 173.872,190.294 173.058,189.849 174.215 M257.814 176.900 C 257.673 177.835,257.476 179.140,257.377 179.800 C 257.237 180.729,257.274 180.819,257.540 180.200 C 257.938 179.276,258.515 175.200,258.249 175.200 C 258.151 175.200,257.955 175.965,257.814 176.900 M297.049 176.215 C 296.912 176.573,296.815 177.166,296.834 177.533 C 296.853 177.900,297.027 177.669,297.221 177.020 C 297.598 175.758,297.465 175.133,297.049 176.215 M154.267 176.667 C 154.120 176.813,154.011 177.308,154.025 177.767 C 154.049 178.533,154.082 178.523,154.434 177.642 C 154.826 176.663,154.744 176.189,154.267 176.667 M118.249 177.415 C 118.112 177.773,118.018 178.456,118.041 178.933 C 118.067 179.481,118.203 179.286,118.410 178.403 C 118.760 176.916,118.665 176.333,118.249 177.415 M189.000 178.800 C 188.848 179.491,188.814 180.147,188.924 180.257 C 189.034 180.367,189.248 179.891,189.400 179.200 C 189.552 178.509,189.586 177.853,189.476 177.743 C 189.366 177.633,189.152 178.109,189.000 178.800 M296.249 179.015 C 296.112 179.373,296.018 180.056,296.041 180.533 C 296.067 181.081,296.203 180.886,296.410 180.003 C 296.760 178.516,296.665 177.933,296.249 179.015 M153.400 180.800 C 153.248 181.491,153.207 182.141,153.309 182.242 C 153.411 182.344,153.609 181.853,153.750 181.150 C 154.083 179.483,153.760 179.160,153.400 180.800 M117.456 181.284 C 117.321 181.788,117.227 182.560,117.246 183.000 C 117.265 183.440,117.445 183.098,117.646 182.240 C 118.036 180.578,117.870 179.740,117.456 181.284 M222.629 181.829 C 222.481 182.415,222.451 182.984,222.561 183.094 C 222.671 183.204,222.881 182.815,223.029 182.229 C 223.176 181.642,223.206 181.073,223.096 180.963 C 222.986 180.853,222.776 181.242,222.629 181.829 M256.893 182.400 C 256.893 183.170,256.975 183.485,257.076 183.100 C 257.176 182.715,257.176 182.085,257.076 181.700 C 256.975 181.315,256.893 181.630,256.893 182.400 M188.229 182.629 C 188.081 183.215,188.038 183.772,188.132 183.866 C 188.227 183.960,188.424 183.558,188.571 182.971 C 188.719 182.385,188.762 181.828,188.668 181.734 C 188.573 181.640,188.376 182.042,188.229 182.629 M152.600 184.400 C 152.448 185.091,152.407 185.741,152.509 185.842 C 152.611 185.944,152.809 185.453,152.950 184.750 C 153.283 183.083,152.960 182.760,152.600 184.400 M256.214 185.700 C 256.073 186.635,255.876 187.940,255.777 188.600 C 255.637 189.529,255.674 189.619,255.940 189.000 C 256.338 188.076,256.915 184.000,256.649 184.000 C 256.551 184.000,256.355 184.765,256.214 185.700 M116.649 185.015 C 116.512 185.373,116.418 186.056,116.441 186.533 C 116.467 187.081,116.603 186.886,116.810 186.003 C 117.160 184.516,117.065 183.933,116.649 185.015 M222.046 184.867 C 222.021 185.234,221.896 185.864,221.770 186.267 C 221.552 186.962,221.563 186.963,221.997 186.287 C 222.248 185.896,222.373 185.266,222.273 184.887 C 222.111 184.268,222.088 184.266,222.046 184.867 M187.449 186.215 C 187.312 186.573,187.215 187.166,187.234 187.533 C 187.253 187.900,187.427 187.669,187.621 187.020 C 187.998 185.758,187.865 185.133,187.449 186.215 M151.800 188.400 C 151.648 189.091,151.607 189.741,151.709 189.842 C 151.811 189.944,152.009 189.453,152.150 188.750 C 152.483 187.083,152.160 186.760,151.800 188.400 M115.849 188.615 C 115.712 188.973,115.621 189.746,115.646 190.333 C 115.680 191.132,115.770 190.998,116.004 189.800 C 116.335 188.100,116.262 187.540,115.849 188.615 M221.029 189.429 C 220.881 190.015,220.851 190.584,220.961 190.694 C 221.071 190.804,221.281 190.415,221.429 189.829 C 221.576 189.242,221.606 188.673,221.496 188.563 C 221.386 188.453,221.176 188.842,221.029 189.429 M186.629 190.229 C 186.481 190.815,186.438 191.372,186.532 191.466 C 186.627 191.560,186.824 191.158,186.971 190.571 C 187.119 189.985,187.162 189.428,187.068 189.334 C 186.973 189.240,186.776 189.642,186.629 190.229 M255.293 191.200 C 255.293 191.970,255.375 192.285,255.476 191.900 C 255.576 191.515,255.576 190.885,255.476 190.500 C 255.375 190.115,255.293 190.430,255.293 191.200 M151.056 191.684 C 150.921 192.188,150.827 192.960,150.846 193.400 C 150.865 193.840,151.045 193.498,151.246 192.640 C 151.636 190.978,151.470 190.140,151.056 191.684 M115.056 192.484 C 114.921 192.988,114.827 193.760,114.846 194.200 C 114.865 194.640,115.045 194.298,115.246 193.440 C 115.636 191.778,115.470 190.940,115.056 192.484 M220.446 192.667 C 220.421 192.924,220.284 193.464,220.141 193.867 C 219.940 194.436,219.994 194.497,220.379 194.142 C 220.652 193.891,220.789 193.351,220.684 192.942 C 220.579 192.534,220.472 192.410,220.446 192.667 M185.873 193.753 C 185.723 194.145,185.611 194.766,185.625 195.133 C 185.642 195.575,185.781 195.474,186.037 194.834 C 186.249 194.303,186.361 193.682,186.285 193.454 C 186.209 193.227,186.024 193.361,185.873 193.753 M150.200 196.000 C 150.046 196.910,150.004 197.738,150.107 197.840 C 150.210 197.943,150.413 197.277,150.560 196.360 C 150.707 195.443,150.748 194.615,150.653 194.520 C 150.558 194.424,150.354 195.090,150.200 196.000 M254.454 195.200 C 254.419 195.750,254.296 196.650,254.183 197.200 L 253.977 198.200 254.407 197.215 C 254.643 196.674,254.765 195.774,254.678 195.215 L 254.520 194.200 254.454 195.200 M114.249 196.215 C 114.112 196.573,114.018 197.256,114.041 197.733 C 114.067 198.281,114.203 198.086,114.410 197.203 C 114.760 195.716,114.665 195.133,114.249 196.215 M219.646 196.467 C 219.621 196.834,219.496 197.464,219.370 197.867 C 219.152 198.562,219.163 198.563,219.597 197.887 C 219.848 197.496,219.973 196.866,219.873 196.487 C 219.711 195.868,219.688 195.866,219.646 196.467 M185.073 197.353 C 184.923 197.745,184.811 198.366,184.825 198.733 C 184.842 199.175,184.981 199.074,185.237 198.434 C 185.449 197.903,185.561 197.282,185.485 197.054 C 185.409 196.827,185.224 196.961,185.073 197.353 M149.456 199.284 C 149.321 199.788,149.227 200.560,149.246 201.000 C 149.265 201.440,149.445 201.098,149.646 200.240 C 150.036 198.578,149.870 197.740,149.456 199.284 M253.649 199.000 C 253.616 199.440,253.496 200.250,253.383 200.800 L 253.177 201.800 253.606 200.819 C 253.842 200.279,253.961 199.469,253.872 199.019 C 253.713 198.221,253.707 198.221,253.649 199.000 M113.449 199.815 C 113.312 200.173,113.221 200.946,113.246 201.533 C 113.280 202.332,113.370 202.198,113.604 201.000 C 113.935 199.300,113.862 198.740,113.449 199.815 M218.854 200.067 C 218.825 200.434,218.684 201.064,218.541 201.467 C 218.341 202.033,218.395 202.096,218.775 201.746 C 219.046 201.497,219.187 200.867,219.088 200.346 C 218.990 199.826,218.884 199.700,218.854 200.067 M184.249 201.415 C 184.112 201.773,184.015 202.366,184.034 202.733 C 184.053 203.100,184.227 202.869,184.421 202.220 C 184.798 200.958,184.665 200.333,184.249 201.415 M148.600 203.600 C 148.446 204.510,148.404 205.338,148.507 205.440 C 148.610 205.543,148.813 204.877,148.960 203.960 C 149.107 203.043,149.148 202.215,149.053 202.120 C 148.958 202.024,148.754 202.690,148.600 203.600 M252.849 202.600 C 252.816 203.040,252.696 203.850,252.583 204.400 L 252.377 205.400 252.806 204.419 C 253.042 203.879,253.161 203.069,253.072 202.619 C 252.913 201.821,252.907 201.821,252.849 202.600 M112.656 203.684 C 112.521 204.188,112.427 204.960,112.446 205.400 C 112.465 205.840,112.645 205.498,112.846 204.640 C 113.236 202.978,113.070 202.140,112.656 203.684 M291.254 204.000 C 291.219 204.550,291.096 205.450,290.983 206.000 L 290.777 207.000 291.207 206.015 C 291.443 205.474,291.565 204.574,291.478 204.015 L 291.320 203.000 291.254 204.000 M218.046 204.067 C 218.021 204.434,217.896 205.064,217.770 205.467 C 217.552 206.162,217.563 206.163,217.997 205.487 C 218.248 205.096,218.373 204.466,218.273 204.087 C 218.111 203.468,218.088 203.466,218.046 204.067 M183.429 205.429 C 183.281 206.015,183.238 206.572,183.332 206.666 C 183.427 206.760,183.624 206.358,183.771 205.771 C 183.919 205.185,183.962 204.628,183.868 204.534 C 183.773 204.440,183.576 204.842,183.429 205.429 M252.054 206.267 C 252.025 206.744,251.896 207.464,251.770 207.867 C 251.552 208.561,251.564 208.562,251.996 207.888 C 252.247 207.497,252.375 206.777,252.281 206.288 C 252.109 205.401,252.109 205.401,252.054 206.267 M147.856 206.884 C 147.721 207.388,147.627 208.160,147.646 208.600 C 147.665 209.040,147.845 208.698,148.046 207.840 C 148.436 206.178,148.270 205.340,147.856 206.884 M111.849 207.415 C 111.712 207.773,111.621 208.546,111.646 209.133 C 111.680 209.932,111.770 209.798,112.004 208.600 C 112.335 206.900,112.262 206.340,111.849 207.415 M290.454 208.000 C 290.419 208.550,290.296 209.450,290.183 210.000 L 289.977 211.000 290.407 210.015 C 290.643 209.474,290.765 208.574,290.678 208.015 L 290.520 207.000 290.454 208.000 M217.246 207.867 C 217.221 208.124,217.084 208.664,216.941 209.067 C 216.740 209.636,216.794 209.697,217.179 209.342 C 217.452 209.091,217.589 208.551,217.484 208.142 C 217.379 207.734,217.272 207.610,217.246 207.867 M182.673 208.953 C 182.523 209.345,182.411 209.966,182.425 210.333 C 182.442 210.775,182.581 210.674,182.837 210.034 C 183.049 209.503,183.161 208.882,183.085 208.654 C 183.009 208.427,182.824 208.561,182.673 208.953 M111.049 211.015 C 110.912 211.373,110.821 212.146,110.846 212.733 C 110.880 213.532,110.970 213.398,111.204 212.200 C 111.535 210.500,111.462 209.940,111.049 211.015 M216.446 211.667 C 216.421 212.034,216.296 212.664,216.170 213.067 C 215.952 213.762,215.963 213.763,216.397 213.087 C 216.648 212.696,216.773 212.066,216.673 211.687 C 216.511 211.068,216.488 211.066,216.446 211.667 M289.654 212.000 C 289.619 212.550,289.496 213.450,289.383 214.000 L 289.177 215.000 289.607 214.015 C 289.843 213.474,289.965 212.574,289.878 212.015 L 289.720 211.000 289.654 212.000 M181.849 212.615 C 181.712 212.973,181.616 213.656,181.636 214.133 C 181.662 214.747,181.785 214.608,182.059 213.656 C 182.457 212.272,182.294 211.458,181.849 212.615 M250.250 214.050 C 250.109 214.753,250.069 215.402,250.159 215.492 C 250.250 215.583,250.448 215.091,250.600 214.400 C 250.752 213.709,250.793 213.059,250.691 212.958 C 250.589 212.856,250.391 213.347,250.250 214.050 M146.256 214.484 C 146.121 214.988,146.028 215.850,146.049 216.400 C 146.072 216.989,146.231 216.671,146.436 215.625 C 146.803 213.752,146.673 212.927,146.256 214.484 M110.256 214.884 C 110.121 215.388,110.028 216.250,110.049 216.800 C 110.072 217.389,110.231 217.071,110.436 216.025 C 110.803 214.152,110.673 213.327,110.256 214.884 M215.429 216.229 C 215.281 216.815,215.251 217.384,215.361 217.494 C 215.471 217.604,215.681 217.215,215.829 216.629 C 215.976 216.042,216.006 215.473,215.896 215.363 C 215.786 215.253,215.576 215.642,215.429 216.229 M288.854 216.000 C 288.819 216.550,288.696 217.450,288.583 218.000 L 288.377 219.000 288.807 218.015 C 289.043 217.474,289.165 216.574,289.078 216.015 L 288.920 215.000 288.854 216.000 M181.049 216.615 C 180.912 216.973,180.815 217.566,180.834 217.933 C 180.853 218.300,181.027 218.069,181.221 217.420 C 181.598 216.158,181.465 215.533,181.049 216.615 M249.450 217.650 C 249.309 218.353,249.269 219.002,249.359 219.092 C 249.450 219.183,249.648 218.691,249.800 218.000 C 249.952 217.309,249.993 216.659,249.891 216.558 C 249.789 216.456,249.591 216.947,249.450 217.650 M145.395 219.059 C 145.254 219.907,144.972 221.122,144.769 221.760 C 144.566 222.398,144.421 223.388,144.446 223.960 C 144.485 224.834,144.542 224.776,144.802 223.600 C 145.670 219.680,145.987 217.854,145.828 217.694 C 145.731 217.598,145.536 218.212,145.395 219.059 M109.449 218.615 C 109.312 218.973,109.221 219.746,109.246 220.333 C 109.280 221.132,109.370 220.998,109.604 219.800 C 109.935 218.100,109.862 217.540,109.449 218.615 M214.650 220.050 C 214.509 220.753,214.469 221.402,214.559 221.492 C 214.650 221.583,214.848 221.091,215.000 220.400 C 215.152 219.709,215.193 219.059,215.091 218.958 C 214.989 218.856,214.791 219.347,214.650 220.050 M288.054 220.000 C 288.019 220.550,287.896 221.450,287.783 222.000 L 287.577 223.000 288.007 222.015 C 288.243 221.474,288.365 220.574,288.278 220.015 L 288.120 219.000 288.054 220.000 M180.267 220.267 C 180.120 220.413,180.015 220.998,180.034 221.567 C 180.068 222.581,180.075 222.579,180.421 221.420 C 180.785 220.203,180.731 219.802,180.267 220.267 M248.650 221.250 C 248.509 221.953,248.469 222.602,248.559 222.692 C 248.650 222.783,248.848 222.291,249.000 221.600 C 249.152 220.909,249.193 220.259,249.091 220.158 C 248.989 220.056,248.791 220.547,248.650 221.250 M108.656 222.484 C 108.521 222.988,108.427 223.760,108.446 224.200 C 108.465 224.640,108.645 224.298,108.846 223.440 C 109.236 221.778,109.070 220.940,108.656 222.484 M213.829 223.829 C 213.681 224.415,213.651 224.984,213.761 225.094 C 213.871 225.204,214.081 224.815,214.229 224.229 C 214.376 223.642,214.406 223.073,214.296 222.963 C 214.186 222.853,213.976 223.242,213.829 223.829 M179.473 224.153 C 179.323 224.545,179.211 225.166,179.225 225.533 C 179.242 225.975,179.381 225.874,179.637 225.234 C 179.849 224.703,179.961 224.082,179.885 223.854 C 179.809 223.627,179.624 223.761,179.473 224.153 M247.850 224.850 C 247.709 225.553,247.669 226.202,247.759 226.292 C 247.850 226.383,248.048 225.891,248.200 225.200 C 248.352 224.509,248.393 223.859,248.291 223.758 C 248.189 223.656,247.991 224.147,247.850 224.850 M287.055 225.455 C 286.913 226.486,286.874 227.408,286.969 227.502 C 287.063 227.596,287.265 226.839,287.418 225.818 C 287.571 224.798,287.610 223.876,287.504 223.771 C 287.398 223.665,287.196 224.423,287.055 225.455 M107.795 226.659 C 107.654 227.507,107.372 228.722,107.169 229.360 C 106.966 229.998,106.821 230.988,106.846 231.560 C 106.885 232.434,106.942 232.376,107.202 231.200 C 108.070 227.280,108.387 225.454,108.228 225.294 C 108.131 225.198,107.936 225.812,107.795 226.659 M143.654 227.200 C 143.619 227.750,143.496 228.650,143.383 229.200 L 143.177 230.200 143.607 229.215 C 143.843 228.674,143.965 227.774,143.878 227.215 L 143.720 226.200 143.654 227.200 M213.246 226.867 C 213.221 227.234,213.096 227.864,212.970 228.267 C 212.752 228.962,212.763 228.963,213.197 228.287 C 213.448 227.896,213.573 227.266,213.473 226.887 C 213.311 226.268,213.288 226.266,213.246 226.867 M178.667 227.867 C 178.520 228.013,178.415 228.598,178.434 229.167 C 178.468 230.181,178.475 230.179,178.821 229.020 C 179.185 227.803,179.131 227.402,178.667 227.867 M247.055 229.455 C 246.913 230.486,246.874 231.408,246.969 231.502 C 247.063 231.596,247.265 230.839,247.418 229.818 C 247.571 228.798,247.610 227.876,247.504 227.771 C 247.398 227.665,247.196 228.423,247.055 229.455 M286.227 231.100 C 286.086 232.805,286.112 234.981,286.285 235.936 C 286.523 237.244,286.609 236.479,286.637 232.836 C 286.680 227.212,286.582 226.800,286.227 231.100 M212.229 231.429 C 212.081 232.015,212.051 232.584,212.161 232.694 C 212.271 232.804,212.481 232.415,212.629 231.829 C 212.776 231.242,212.806 230.673,212.696 230.563 C 212.586 230.453,212.376 230.842,212.229 231.429 M177.849 231.815 C 177.712 232.173,177.615 232.766,177.634 233.133 C 177.653 233.500,177.827 233.269,178.021 232.620 C 178.398 231.358,178.265 230.733,177.849 231.815 M246.215 234.615 C 246.061 235.854,246.024 236.957,246.134 237.067 C 246.244 237.177,246.461 236.254,246.615 235.015 C 246.770 233.777,246.807 232.673,246.697 232.563 C 246.587 232.453,246.370 233.377,246.215 234.615 M106.256 233.684 C 106.121 234.188,106.027 234.960,106.046 235.400 C 106.065 235.840,106.245 235.498,106.446 234.640 C 106.836 232.978,106.670 232.140,106.256 233.684 M142.054 234.800 C 142.019 235.350,141.896 236.250,141.783 236.800 L 141.577 237.800 142.007 236.815 C 142.243 236.274,142.365 235.374,142.278 234.815 L 142.120 233.800 142.054 234.800 M211.450 235.250 C 211.309 235.953,211.269 236.602,211.359 236.692 C 211.450 236.783,211.648 236.291,211.800 235.600 C 211.952 234.909,211.993 234.259,211.891 234.158 C 211.789 234.056,211.591 234.547,211.450 235.250 M177.067 235.467 C 176.920 235.613,176.815 236.198,176.834 236.767 C 176.868 237.781,176.875 237.779,177.221 236.620 C 177.585 235.403,177.531 235.002,177.067 235.467 M105.249 238.600 C 105.216 239.040,105.096 239.850,104.983 240.400 L 104.777 241.400 105.206 240.419 C 105.442 239.879,105.561 239.069,105.472 238.619 C 105.313 237.821,105.307 237.821,105.249 238.600 M210.629 239.029 C 210.481 239.615,210.438 240.172,210.532 240.266 C 210.627 240.360,210.824 239.958,210.971 239.371 C 211.119 238.785,211.162 238.228,211.068 238.134 C 210.973 238.040,210.776 238.442,210.629 239.029 M287.256 238.741 C 287.510 239.148,288.097 239.711,288.559 239.991 C 289.148 240.347,289.048 240.125,288.225 239.250 C 286.888 237.827,286.586 237.669,287.256 238.741 M245.524 241.100 C 245.418 242.585,245.447 245.060,245.588 246.600 C 245.795 248.866,245.852 248.352,245.885 243.900 C 245.931 237.848,245.818 236.974,245.524 241.100 M176.267 239.467 C 176.120 239.613,176.011 240.108,176.025 240.567 C 176.049 241.333,176.082 241.323,176.434 240.442 C 176.826 239.463,176.744 238.989,176.267 239.467 M296.600 240.800 C 296.096 241.017,296.022 241.144,296.400 241.144 C 296.730 241.144,297.360 240.989,297.800 240.800 C 298.304 240.583,298.378 240.456,298.000 240.456 C 297.670 240.456,297.040 240.611,296.600 240.800 M302.578 241.778 C 302.427 242.581,302.394 243.327,302.504 243.437 C 302.614 243.547,302.827 242.981,302.978 242.178 C 303.128 241.375,303.162 240.628,303.052 240.518 C 302.942 240.408,302.728 240.975,302.578 241.778 M140.454 242.400 C 140.419 242.950,140.296 243.850,140.183 244.400 L 139.977 245.400 140.407 244.415 C 140.643 243.874,140.765 242.974,140.678 242.415 L 140.520 241.400 140.454 242.400 M209.800 242.800 C 209.648 243.491,209.614 244.147,209.724 244.257 C 209.834 244.367,210.048 243.891,210.200 243.200 C 210.352 242.509,210.386 241.853,210.276 241.743 C 210.166 241.633,209.952 242.109,209.800 242.800 M175.449 243.415 C 175.312 243.773,175.215 244.366,175.234 244.733 C 175.253 245.100,175.427 244.869,175.621 244.220 C 175.998 242.958,175.865 242.333,175.449 243.415 M103.856 244.884 C 103.721 245.388,103.627 246.160,103.646 246.600 C 103.665 247.040,103.845 246.698,104.046 245.840 C 104.436 244.178,104.270 243.340,103.856 244.884 M301.856 244.884 C 301.721 245.388,301.627 246.160,301.646 246.600 C 301.665 247.040,301.845 246.698,302.046 245.840 C 302.436 244.178,302.270 243.340,301.856 244.884 M139.660 246.467 C 139.627 247.054,139.496 247.864,139.370 248.267 C 139.152 248.960,139.165 248.961,139.595 248.290 C 139.846 247.899,139.977 247.089,139.886 246.490 L 139.720 245.400 139.660 246.467 M209.029 246.629 C 208.881 247.215,208.851 247.784,208.961 247.894 C 209.071 248.004,209.281 247.615,209.429 247.029 C 209.576 246.442,209.606 245.873,209.496 245.763 C 209.386 245.653,209.176 246.042,209.029 246.629 M174.649 247.015 C 174.512 247.373,174.416 248.056,174.436 248.533 C 174.462 249.147,174.585 249.008,174.859 248.056 C 175.257 246.672,175.094 245.858,174.649 247.015 M301.000 248.800 C 300.848 249.491,300.807 250.141,300.909 250.242 C 301.011 250.344,301.209 249.853,301.350 249.150 C 301.491 248.447,301.531 247.798,301.441 247.708 C 301.350 247.617,301.152 248.109,301.000 248.800 M102.849 249.800 C 102.816 250.240,102.696 251.050,102.583 251.600 L 102.377 252.600 102.806 251.619 C 103.042 251.079,103.161 250.269,103.072 249.819 C 102.913 249.021,102.907 249.021,102.849 249.800 M138.854 250.000 C 138.819 250.550,138.696 251.450,138.583 252.000 L 138.377 253.000 138.807 252.015 C 139.043 251.474,139.165 250.574,139.078 250.015 L 138.920 249.000 138.854 250.000 M208.200 250.400 C 208.048 251.091,208.014 251.747,208.124 251.857 C 208.234 251.967,208.448 251.491,208.600 250.800 C 208.752 250.109,208.786 249.453,208.676 249.343 C 208.566 249.233,208.352 249.709,208.200 250.400 M173.867 250.667 C 173.720 250.813,173.615 251.398,173.634 251.967 C 173.668 252.981,173.675 252.979,174.021 251.820 C 174.385 250.603,174.331 250.202,173.867 250.667 M246.068 251.200 C 246.088 252.239,246.718 253.946,246.732 253.000 C 246.738 252.560,246.589 251.840,246.400 251.400 C 246.189 250.910,246.061 250.832,246.068 251.200 M300.200 252.400 C 300.048 253.091,300.007 253.741,300.109 253.842 C 300.211 253.944,300.409 253.453,300.550 252.750 C 300.691 252.047,300.731 251.398,300.641 251.308 C 300.550 251.217,300.352 251.709,300.200 252.400 M102.060 253.667 C 102.027 254.254,101.896 255.064,101.770 255.467 C 101.552 256.160,101.565 256.161,101.995 255.490 C 102.246 255.099,102.377 254.289,102.286 253.690 L 102.120 252.600 102.060 253.667 M207.429 254.229 C 207.281 254.815,207.238 255.372,207.332 255.466 C 207.427 255.560,207.624 255.158,207.771 254.571 C 207.919 253.985,207.962 253.428,207.868 253.334 C 207.773 253.240,207.576 253.642,207.429 254.229 M173.049 254.615 C 172.912 254.973,172.815 255.566,172.834 255.933 C 172.853 256.300,173.027 256.069,173.221 255.420 C 173.598 254.158,173.465 253.533,173.049 254.615 M299.456 255.684 C 299.321 256.188,299.227 256.960,299.246 257.400 C 299.265 257.840,299.445 257.498,299.646 256.640 C 300.036 254.978,299.870 254.140,299.456 255.684 M101.254 257.200 C 101.219 257.750,101.096 258.650,100.983 259.200 L 100.777 260.200 101.207 259.215 C 101.443 258.674,101.565 257.774,101.478 257.215 L 101.320 256.200 101.254 257.200 M137.249 257.800 C 137.216 258.240,137.096 259.050,136.983 259.600 L 136.777 260.600 137.206 259.619 C 137.442 259.079,137.561 258.269,137.472 257.819 C 137.313 257.021,137.307 257.021,137.249 257.800 M206.673 257.753 C 206.523 258.145,206.411 258.766,206.425 259.133 C 206.442 259.575,206.581 259.474,206.837 258.834 C 207.049 258.303,207.161 257.682,207.085 257.454 C 207.009 257.227,206.824 257.361,206.673 257.753 M172.249 258.615 C 172.112 258.973,172.015 259.566,172.034 259.933 C 172.053 260.300,172.227 260.069,172.421 259.420 C 172.798 258.158,172.665 257.533,172.249 258.615 M100.449 261.000 C 100.416 261.440,100.296 262.250,100.183 262.800 L 99.977 263.800 100.406 262.819 C 100.642 262.279,100.761 261.469,100.672 261.019 C 100.513 260.221,100.507 260.221,100.449 261.000 M136.460 261.667 C 136.427 262.254,136.296 263.064,136.170 263.467 C 135.952 264.160,135.965 264.161,136.395 263.490 C 136.646 263.099,136.777 262.289,136.686 261.690 L 136.520 260.600 136.460 261.667 M205.829 261.829 C 205.681 262.415,205.638 262.972,205.732 263.066 C 205.827 263.160,206.024 262.758,206.171 262.171 C 206.319 261.585,206.362 261.028,206.268 260.934 C 206.173 260.840,205.976 261.242,205.829 261.829 M171.449 262.215 C 171.312 262.573,171.216 263.256,171.236 263.733 C 171.262 264.347,171.385 264.208,171.659 263.256 C 172.057 261.872,171.894 261.058,171.449 262.215 M297.800 263.200 C 297.648 263.891,297.607 264.541,297.709 264.642 C 297.811 264.744,298.009 264.253,298.150 263.550 C 298.291 262.847,298.331 262.198,298.241 262.108 C 298.150 262.017,297.952 262.509,297.800 263.200 M252.000 263.747 C 252.770 264.584,253.940 265.643,254.600 266.100 C 256.009 267.074,255.756 266.804,252.800 264.178 C 251.042 262.617,250.882 262.530,252.000 263.747 M99.443 266.024 C 99.300 266.918,99.287 267.818,99.415 268.024 C 99.554 268.249,106.686 268.400,117.201 268.400 L 134.755 268.400 135.377 267.511 C 135.720 267.022,135.982 266.167,135.959 265.611 C 135.924 264.755,135.870 264.805,135.602 265.937 C 135.099 268.067,135.584 268.015,117.176 267.904 L 99.800 267.800 99.927 266.100 C 100.088 263.940,99.783 263.892,99.443 266.024 M205.073 265.353 C 204.923 265.745,204.811 266.366,204.825 266.733 C 204.842 267.175,204.981 267.074,205.237 266.434 C 205.449 265.903,205.561 265.282,205.485 265.054 C 205.409 264.827,205.224 264.961,205.073 265.353 M170.600 266.000 C 169.809 268.491,169.163 268.400,187.603 268.400 C 196.816 268.400,204.436 268.265,204.538 268.100 C 204.640 267.935,197.136 267.800,187.862 267.800 L 171.000 267.800 171.102 266.500 C 171.216 265.035,170.981 264.801,170.600 266.000 M297.108 265.909 C 296.980 266.398,296.453 266.967,295.938 267.174 C 295.005 267.547,295.005 267.549,295.886 267.575 C 296.798 267.601,297.777 266.332,297.496 265.488 C 297.410 265.231,297.236 265.421,297.108 265.909 M285.400 270.400 L 284.600 270.744 285.400 270.766 C 285.840 270.778,286.470 270.613,286.800 270.400 C 287.595 269.886,286.596 269.886,285.400 270.400 M266.200 271.190 C 266.964 271.528,269.514 271.757,269.167 271.456 C 269.075 271.376,268.190 271.204,267.200 271.073 C 265.998 270.914,265.666 270.953,266.200 271.190 M280.200 271.200 L 278.600 271.486 280.200 271.537 C 281.080 271.565,282.070 271.413,282.400 271.200 C 283.115 270.738,282.781 270.738,280.200 271.200 M99.900 398.300 C 154.955 398.356,245.045 398.356,300.100 398.300 C 355.155 398.244,310.110 398.198,200.000 398.198 C 89.890 398.198,44.845 398.244,99.900 398.300 " stroke="none" fill="#66a5ec" fill-rule="evenodd"></path><path id="path4" d="M123.505 125.483 C 124.002 125.579,124.722 125.575,125.105 125.475 C 125.487 125.375,125.080 125.296,124.200 125.301 C 123.320 125.305,123.007 125.387,123.505 125.483 M200.500 125.476 C 200.885 125.576,201.515 125.576,201.900 125.476 C 202.285 125.375,201.970 125.293,201.200 125.293 C 200.430 125.293,200.115 125.375,200.500 125.476 M116.000 126.000 C 114.643 126.286,114.637 126.295,115.800 126.307 C 116.460 126.315,117.450 126.176,118.000 126.000 C 119.312 125.580,117.996 125.580,116.000 126.000 M130.400 125.980 C 131.399 126.320,133.882 126.532,133.567 126.251 C 133.475 126.169,132.500 125.999,131.400 125.872 C 130.051 125.716,129.726 125.751,130.400 125.980 M192.800 126.000 L 191.400 126.295 192.800 126.307 C 193.570 126.315,194.650 126.176,195.200 126.000 L 196.200 125.680 195.200 125.693 C 194.650 125.700,193.570 125.838,192.800 126.000 M206.200 125.990 C 206.964 126.328,209.514 126.557,209.167 126.256 C 209.075 126.176,208.190 126.004,207.200 125.873 C 205.998 125.714,205.666 125.753,206.200 125.990 M262.800 126.000 L 261.400 126.295 262.800 126.300 C 263.570 126.303,264.740 126.168,265.400 126.000 L 266.600 125.695 265.400 125.700 C 264.740 125.703,263.570 125.838,262.800 126.000 M276.400 126.000 C 276.950 126.176,277.760 126.320,278.200 126.320 C 278.833 126.320,278.792 126.254,278.000 126.000 C 277.450 125.824,276.640 125.680,276.200 125.680 C 275.567 125.680,275.608 125.746,276.400 126.000 M112.000 126.800 C 111.176 127.064,111.141 127.126,111.800 127.154 C 112.240 127.173,112.870 127.013,113.200 126.800 C 113.901 126.347,113.414 126.347,112.000 126.800 M135.200 126.782 C 135.530 127.005,136.145 127.191,136.567 127.194 C 137.590 127.202,137.271 126.973,135.800 126.644 C 134.924 126.448,134.762 126.485,135.200 126.782 M188.400 126.800 C 187.576 127.064,187.541 127.126,188.200 127.154 C 188.640 127.173,189.270 127.013,189.600 126.800 C 190.301 126.347,189.814 126.347,188.400 126.800 M258.800 126.800 C 257.996 127.057,257.957 127.123,258.600 127.132 C 259.040 127.138,259.760 126.989,260.200 126.800 C 261.219 126.362,260.168 126.362,258.800 126.800 M140.487 128.220 C 140.869 128.602,144.800 130.399,144.800 130.192 C 144.800 129.981,142.788 128.928,141.311 128.366 C 140.709 128.137,140.338 128.072,140.487 128.220 M214.033 128.149 C 214.445 128.517,216.800 129.600,216.800 129.421 C 216.800 129.190,214.582 128.000,214.153 128.000 C 213.996 128.000,213.942 128.067,214.033 128.149 M102.800 130.400 C 102.030 130.822,101.544 131.174,101.720 131.183 C 102.144 131.205,104.400 130.032,104.400 129.790 C 104.400 129.528,104.377 129.537,102.800 130.400 M217.200 129.724 C 217.200 129.817,217.965 130.390,218.900 130.997 C 219.835 131.604,221.061 132.483,221.624 132.950 C 222.187 133.418,221.983 133.170,221.171 132.400 C 219.791 131.091,217.200 129.346,217.200 129.724 M248.200 130.378 C 247.320 130.795,246.713 131.150,246.851 131.168 C 247.240 131.218,250.000 130.014,250.000 129.795 C 250.000 129.527,249.999 129.527,248.200 130.378 M145.200 130.524 C 145.200 130.617,145.965 131.198,146.900 131.815 C 147.835 132.432,148.389 132.680,148.131 132.368 C 147.634 131.767,145.200 130.236,145.200 130.524 M288.800 130.524 C 288.800 130.617,289.565 131.180,290.500 131.775 C 291.435 132.370,293.076 133.789,294.148 134.928 C 295.370 136.228,295.775 136.523,295.235 135.720 C 294.019 133.912,288.800 129.698,288.800 130.524 M243.500 132.629 C 242.005 133.440,242.096 133.778,243.600 133.000 C 244.260 132.659,244.800 132.294,244.800 132.190 C 244.800 131.932,244.757 131.947,243.500 132.629 M94.895 134.211 C 93.352 135.250,92.814 135.855,92.854 136.511 L 92.909 137.400 93.079 136.526 C 93.177 136.022,94.085 135.116,95.224 134.384 C 96.930 133.290,97.508 132.800,97.095 132.800 C 97.037 132.800,96.047 133.435,94.895 134.211 M151.000 135.200 C 152.306 136.520,153.465 137.600,153.575 137.600 C 153.685 137.600,152.706 136.520,151.400 135.200 C 150.094 133.880,148.935 132.800,148.825 132.800 C 148.715 132.800,149.694 133.880,151.000 135.200 M169.096 135.408 C 167.613 136.403,166.400 137.304,166.400 137.412 C 166.400 137.519,167.660 136.769,169.200 135.745 C 171.650 134.116,172.298 133.600,171.896 133.600 C 171.838 133.600,170.578 134.414,169.096 135.408 M296.360 137.800 C 297.034 139.105,297.588 139.828,297.585 139.400 C 297.583 139.180,297.214 138.550,296.764 138.000 C 296.221 137.336,296.085 137.269,296.360 137.800 M92.256 138.484 C 92.121 138.988,92.027 139.760,92.046 140.200 C 92.065 140.640,92.245 140.298,92.446 139.440 C 92.836 137.778,92.670 136.940,92.256 138.484 M232.283 141.253 C 230.348 143.038,228.823 144.556,228.894 144.627 C 228.964 144.698,230.637 143.236,232.611 141.378 C 234.585 139.520,236.110 138.002,236.000 138.004 C 235.890 138.006,234.217 139.468,232.283 141.253 M154.958 140.681 C 155.477 141.736,156.000 142.870,156.119 143.200 C 156.254 143.571,156.349 143.608,156.368 143.296 C 156.408 142.664,154.828 139.265,154.360 138.975 C 154.170 138.858,154.438 139.625,154.958 140.681 M226.028 141.476 C 226.013 141.958,226.180 142.464,226.400 142.600 C 226.873 142.892,226.873 142.501,226.400 141.400 C 226.069 140.629,226.055 140.631,226.028 141.476 M159.600 143.000 C 157.793 144.842,157.021 145.183,156.665 144.300 C 156.507 143.908,156.456 143.911,156.432 144.313 C 156.347 145.678,157.765 145.225,159.733 143.257 C 160.865 142.126,161.695 141.200,161.579 141.200 C 161.462 141.200,160.572 142.010,159.600 143.000 M226.846 145.100 C 226.799 146.019,228.093 146.420,228.577 145.637 C 228.700 145.438,228.457 145.365,228.037 145.474 C 227.524 145.609,227.211 145.432,227.083 144.937 C 226.928 144.337,226.884 144.367,226.846 145.100 M90.656 145.684 C 90.521 146.188,90.427 146.960,90.446 147.400 C 90.465 147.840,90.645 147.498,90.846 146.640 C 91.236 144.978,91.070 144.140,90.656 145.684 M299.268 145.400 C 299.262 145.840,299.411 146.560,299.600 147.000 C 300.038 148.019,300.038 146.968,299.600 145.600 C 299.343 144.796,299.277 144.757,299.268 145.400 M300.154 153.800 C 300.159 157.405,300.216 157.828,300.471 156.141 C 300.642 155.009,300.639 153.029,300.465 151.741 C 300.188 149.692,300.149 149.949,300.154 153.800 M108.200 152.802 C 107.519 152.976,108.385 153.018,110.200 152.898 C 111.960 152.783,113.475 152.623,113.567 152.544 C 113.875 152.277,109.412 152.491,108.200 152.802 M105.000 153.600 C 104.496 153.817,104.422 153.944,104.800 153.944 C 105.130 153.944,105.760 153.789,106.200 153.600 C 106.704 153.383,106.778 153.256,106.400 153.256 C 106.070 153.256,105.440 153.411,105.000 153.600 M115.400 153.454 C 115.620 153.648,116.429 154.345,117.199 155.003 L 118.597 156.200 117.599 155.063 C 117.049 154.438,116.240 153.741,115.800 153.514 C 115.360 153.288,115.180 153.261,115.400 153.454 M181.911 155.493 C 182.851 155.578,184.291 155.577,185.111 155.491 C 185.930 155.405,185.160 155.336,183.400 155.337 C 181.640 155.339,180.970 155.409,181.911 155.493 M250.300 155.493 C 251.235 155.577,252.765 155.577,253.700 155.493 C 254.635 155.409,253.870 155.340,252.000 155.340 C 250.130 155.340,249.365 155.409,250.300 155.493 M246.600 156.000 C 246.096 156.217,246.022 156.344,246.400 156.344 C 246.730 156.344,247.360 156.189,247.800 156.000 C 248.304 155.783,248.378 155.656,248.000 155.656 C 247.670 155.656,247.040 155.811,246.600 156.000 M189.872 157.179 C 190.132 157.521,190.626 158.341,190.970 159.001 C 191.314 159.660,191.596 159.923,191.598 159.585 C 191.599 159.247,191.105 158.427,190.500 157.763 C 189.895 157.099,189.613 156.836,189.872 157.179 M244.100 156.812 C 242.761 157.351,243.011 157.624,244.400 157.140 C 245.060 156.910,245.600 156.649,245.600 156.561 C 245.600 156.324,245.113 156.405,244.100 156.812 M93.339 160.055 C 92.091 161.185,91.254 162.040,91.478 161.955 C 92.013 161.752,96.158 158.000,95.847 158.000 C 95.716 158.000,94.587 158.925,93.339 160.055 M238.973 159.534 C 236.822 160.951,234.641 162.800,235.120 162.800 C 235.330 162.800,235.743 162.510,236.038 162.155 C 236.332 161.800,237.659 160.813,238.987 159.963 C 240.314 159.113,241.220 158.427,241.000 158.440 C 240.780 158.452,239.868 158.945,238.973 159.534 M120.200 164.623 C 120.200 167.344,120.322 169.262,120.472 168.885 C 120.842 167.953,120.860 160.714,120.494 160.138 C 120.332 159.884,120.200 161.902,120.200 164.623 M167.837 161.422 C 166.607 162.424,165.600 163.341,165.600 163.459 C 165.600 163.578,166.545 162.904,167.700 161.963 C 170.550 159.640,170.594 159.600,170.317 159.600 C 170.183 159.600,169.067 160.420,167.837 161.422 M299.446 161.846 C 299.300 163.093,299.259 164.193,299.357 164.290 C 299.454 164.388,299.661 163.454,299.815 162.215 C 299.970 160.977,300.010 159.877,299.905 159.771 C 299.799 159.666,299.593 160.599,299.446 161.846 M87.254 161.200 C 87.219 161.750,87.096 162.650,86.983 163.200 L 86.777 164.200 87.207 163.215 C 87.443 162.674,87.565 161.774,87.478 161.215 L 87.320 160.200 87.254 161.200 M191.693 161.600 C 191.693 162.370,191.775 162.685,191.876 162.300 C 191.976 161.915,191.976 161.285,191.876 160.900 C 191.775 160.515,191.693 160.830,191.693 161.600 M191.714 165.000 C 191.717 166.100,191.795 166.503,191.887 165.895 C 191.979 165.286,191.977 164.386,191.882 163.895 C 191.787 163.403,191.711 163.900,191.714 165.000 M163.000 165.545 C 161.900 166.603,160.282 168.263,159.405 169.234 C 158.528 170.205,159.473 169.384,161.505 167.408 C 163.537 165.433,165.200 163.768,165.200 163.708 C 165.200 163.467,164.916 163.704,163.000 165.545 M86.338 165.600 C 86.021 167.427,86.108 167.467,87.481 166.128 C 88.118 165.508,88.239 165.333,87.750 165.741 C 86.868 166.477,86.860 166.474,86.721 165.341 C 86.585 164.232,86.574 164.240,86.338 165.600 M298.622 167.022 C 298.472 167.825,298.428 168.562,298.526 168.660 C 298.624 168.757,298.827 168.181,298.978 167.378 C 299.128 166.575,299.172 165.838,299.074 165.740 C 298.976 165.643,298.773 166.219,298.622 167.022 M260.049 167.000 C 260.016 167.440,259.896 168.250,259.783 168.800 L 259.577 169.800 260.006 168.819 C 260.242 168.279,260.361 167.469,260.272 167.019 C 260.113 166.221,260.107 166.221,260.049 167.000 M191.301 168.600 C 191.305 169.480,191.387 169.793,191.483 169.295 C 191.579 168.798,191.575 168.078,191.475 167.695 C 191.375 167.313,191.296 167.720,191.301 168.600 M228.434 169.353 L 227.469 170.600 228.613 169.512 C 229.243 168.914,229.677 168.353,229.579 168.265 C 229.480 168.177,228.965 168.667,228.434 169.353 M119.670 172.267 C 119.631 173.184,119.496 174.264,119.370 174.667 C 119.153 175.356,119.167 175.357,119.593 174.695 C 119.842 174.307,119.977 173.227,119.893 172.295 L 119.740 170.600 119.670 172.267 M297.829 171.829 C 297.681 172.415,297.638 172.972,297.732 173.066 C 297.827 173.160,298.024 172.758,298.171 172.171 C 298.319 171.585,298.362 171.028,298.268 170.934 C 298.173 170.840,297.976 171.242,297.829 171.829 M156.575 172.668 C 155.959 173.476,155.659 174.011,155.909 173.856 C 156.421 173.540,158.153 171.200,157.875 171.200 C 157.776 171.200,157.191 171.861,156.575 172.668 M259.050 172.450 C 258.717 174.117,259.040 174.440,259.400 172.800 C 259.552 172.109,259.593 171.459,259.491 171.358 C 259.389 171.256,259.191 171.747,259.050 172.450 M190.493 173.600 C 190.493 174.370,190.575 174.685,190.676 174.300 C 190.776 173.915,190.776 173.285,190.676 172.900 C 190.575 172.515,190.493 172.830,190.493 173.600 M224.653 174.391 C 224.074 175.267,223.600 176.117,223.600 176.280 C 223.600 176.444,223.842 176.223,224.139 175.789 C 225.441 173.881,226.078 172.800,225.899 172.800 C 225.793 172.800,225.232 173.516,224.653 174.391 M258.250 176.850 C 257.917 178.517,258.240 178.840,258.600 177.200 C 258.752 176.509,258.793 175.859,258.691 175.758 C 258.589 175.656,258.391 176.147,258.250 176.850 M118.846 177.267 C 118.821 177.634,118.696 178.264,118.570 178.667 C 118.352 179.362,118.363 179.363,118.797 178.687 C 119.048 178.296,119.173 177.666,119.073 177.287 C 118.911 176.668,118.888 176.666,118.846 177.267 M189.693 178.000 C 189.693 178.770,189.775 179.085,189.876 178.700 C 189.976 178.315,189.976 177.685,189.876 177.300 C 189.775 176.915,189.693 177.230,189.693 178.000 M223.049 177.815 C 222.912 178.173,222.818 178.856,222.841 179.333 C 222.867 179.881,223.003 179.686,223.210 178.803 C 223.560 177.316,223.465 176.733,223.049 177.815 M257.450 181.250 C 257.117 182.917,257.440 183.240,257.800 181.600 C 257.952 180.909,257.993 180.259,257.891 180.158 C 257.789 180.056,257.591 180.547,257.450 181.250 M295.429 181.029 C 295.281 181.615,295.238 182.172,295.332 182.266 C 295.427 182.360,295.624 181.958,295.771 181.371 C 295.919 180.785,295.962 180.228,295.868 180.134 C 295.773 180.040,295.576 180.442,295.429 181.029 M118.046 180.867 C 118.021 181.234,117.896 181.864,117.770 182.267 C 117.552 182.962,117.563 182.963,117.997 182.287 C 118.248 181.896,118.373 181.266,118.273 180.887 C 118.111 180.268,118.088 180.266,118.046 180.867 M152.849 181.400 C 152.816 181.840,152.696 182.650,152.583 183.200 L 152.377 184.200 152.806 183.219 C 153.042 182.679,153.161 181.869,153.072 181.419 C 152.913 180.621,152.907 180.621,152.849 181.400 M222.249 181.815 C 222.112 182.173,222.015 182.766,222.034 183.133 C 222.053 183.500,222.227 183.269,222.421 182.620 C 222.798 181.358,222.665 180.733,222.249 181.815 M294.629 185.029 C 294.481 185.615,294.438 186.172,294.532 186.266 C 294.627 186.360,294.824 185.958,294.971 185.371 C 295.119 184.785,295.162 184.228,295.068 184.134 C 294.973 184.040,294.776 184.442,294.629 185.029 M256.600 185.600 C 256.448 186.291,256.414 186.947,256.524 187.057 C 256.634 187.167,256.848 186.691,257.000 186.000 C 257.152 185.309,257.186 184.653,257.076 184.543 C 256.966 184.433,256.752 184.909,256.600 185.600 M151.822 186.222 C 151.672 187.025,151.628 187.762,151.726 187.860 C 151.824 187.957,152.027 187.381,152.178 186.578 C 152.328 185.775,152.372 185.038,152.274 184.940 C 152.176 184.843,151.973 185.419,151.822 186.222 M221.449 185.415 C 221.312 185.773,221.218 186.456,221.241 186.933 C 221.267 187.481,221.403 187.286,221.610 186.403 C 221.960 184.916,221.865 184.333,221.449 185.415 M116.229 189.029 C 116.081 189.615,116.051 190.184,116.161 190.294 C 116.271 190.404,116.481 190.015,116.629 189.429 C 116.776 188.842,116.806 188.273,116.696 188.163 C 116.586 188.053,116.376 188.442,116.229 189.029 M293.829 189.029 C 293.681 189.615,293.638 190.172,293.732 190.266 C 293.827 190.360,294.024 189.958,294.171 189.371 C 294.319 188.785,294.362 188.228,294.268 188.134 C 294.173 188.040,293.976 188.442,293.829 189.029 M187.254 189.200 C 187.219 189.750,187.096 190.650,186.983 191.200 L 186.777 192.200 187.207 191.215 C 187.443 190.674,187.565 189.774,187.478 189.215 L 187.320 188.200 187.254 189.200 M220.656 189.284 C 220.521 189.788,220.427 190.560,220.446 191.000 C 220.465 191.440,220.645 191.098,220.846 190.240 C 221.236 188.578,221.070 187.740,220.656 189.284 M151.050 190.050 C 150.717 191.717,151.040 192.040,151.400 190.400 C 151.552 189.709,151.593 189.059,151.491 188.958 C 151.389 188.856,151.191 189.347,151.050 190.050 M255.850 190.050 C 255.517 191.717,255.840 192.040,256.200 190.400 C 256.352 189.709,256.393 189.059,256.291 188.958 C 256.189 188.856,255.991 189.347,255.850 190.050 M115.450 192.850 C 115.117 194.517,115.440 194.840,115.800 193.200 C 115.952 192.509,115.993 191.859,115.891 191.758 C 115.789 191.656,115.591 192.147,115.450 192.850 M293.029 193.029 C 292.881 193.615,292.838 194.172,292.932 194.266 C 293.027 194.360,293.224 193.958,293.371 193.371 C 293.519 192.785,293.562 192.228,293.468 192.134 C 293.373 192.040,293.176 192.442,293.029 193.029 M219.849 193.015 C 219.712 193.373,219.618 194.056,219.641 194.533 C 219.667 195.081,219.803 194.886,220.010 194.003 C 220.360 192.516,220.265 191.933,219.849 193.015 M255.000 194.400 C 254.848 195.091,254.814 195.747,254.924 195.857 C 255.034 195.967,255.248 195.491,255.400 194.800 C 255.552 194.109,255.586 193.453,255.476 193.343 C 255.366 193.233,255.152 193.709,255.000 194.400 M185.654 196.800 C 185.619 197.350,185.496 198.250,185.383 198.800 L 185.177 199.800 185.607 198.815 C 185.843 198.274,185.965 197.374,185.878 196.815 L 185.720 195.800 185.654 196.800 M219.056 196.884 C 218.921 197.388,218.827 198.160,218.846 198.600 C 218.865 199.040,219.045 198.698,219.246 197.840 C 219.636 196.178,219.470 195.340,219.056 196.884 M292.229 197.029 C 292.081 197.615,292.038 198.172,292.132 198.266 C 292.227 198.360,292.424 197.958,292.571 197.371 C 292.719 196.785,292.762 196.228,292.668 196.134 C 292.573 196.040,292.376 196.442,292.229 197.029 M149.450 197.650 C 149.117 199.317,149.440 199.640,149.800 198.000 C 149.952 197.309,149.993 196.659,149.891 196.558 C 149.789 196.456,149.591 196.947,149.450 197.650 M254.229 198.229 C 254.081 198.815,254.038 199.372,254.132 199.466 C 254.227 199.560,254.424 199.158,254.571 198.571 C 254.719 197.985,254.762 197.428,254.668 197.334 C 254.573 197.240,254.376 197.642,254.229 198.229 M113.829 200.229 C 113.681 200.815,113.651 201.384,113.761 201.494 C 113.871 201.604,114.081 201.215,114.229 200.629 C 114.376 200.042,114.406 199.473,114.296 199.363 C 114.186 199.253,113.976 199.642,113.829 200.229 M218.249 200.615 C 218.112 200.973,218.018 201.656,218.041 202.133 C 218.067 202.681,218.203 202.486,218.410 201.603 C 218.760 200.116,218.665 199.533,218.249 200.615 M291.429 201.029 C 291.281 201.615,291.238 202.172,291.332 202.266 C 291.427 202.360,291.624 201.958,291.771 201.371 C 291.919 200.785,291.962 200.228,291.868 200.134 C 291.773 200.040,291.576 200.442,291.429 201.029 M148.600 201.600 C 148.448 202.291,148.407 202.941,148.509 203.042 C 148.611 203.144,148.809 202.653,148.950 201.950 C 149.283 200.283,148.960 199.960,148.600 201.600 M253.429 201.829 C 253.281 202.415,253.238 202.972,253.332 203.066 C 253.427 203.160,253.624 202.758,253.771 202.171 C 253.919 201.585,253.962 201.028,253.868 200.934 C 253.773 200.840,253.576 201.242,253.429 201.829 M113.050 204.050 C 112.717 205.717,113.040 206.040,113.400 204.400 C 113.552 203.709,113.593 203.059,113.491 202.958 C 113.389 202.856,113.191 203.347,113.050 204.050 M217.456 204.484 C 217.321 204.988,217.227 205.760,217.246 206.200 C 217.265 206.640,217.445 206.298,217.646 205.440 C 218.036 203.778,217.870 202.940,217.456 204.484 M184.049 204.600 C 184.016 205.040,183.896 205.850,183.783 206.400 L 183.577 207.400 184.006 206.419 C 184.242 205.879,184.361 205.069,184.272 204.619 C 184.113 203.821,184.107 203.821,184.049 204.600 M290.673 204.553 C 290.523 204.945,290.411 205.566,290.425 205.933 C 290.442 206.375,290.581 206.274,290.837 205.634 C 291.049 205.103,291.161 204.482,291.085 204.254 C 291.009 204.027,290.824 204.161,290.673 204.553 M147.829 205.429 C 147.681 206.015,147.638 206.572,147.732 206.666 C 147.827 206.760,148.024 206.358,148.171 205.771 C 148.319 205.185,148.362 204.628,148.268 204.534 C 148.173 204.440,147.976 204.842,147.829 205.429 M252.629 205.429 C 252.481 206.015,252.438 206.572,252.532 206.666 C 252.627 206.760,252.824 206.358,252.971 205.771 C 253.119 205.185,253.162 204.628,253.068 204.534 C 252.973 204.440,252.776 204.842,252.629 205.429 M183.260 208.467 C 183.227 209.054,183.096 209.864,182.970 210.267 C 182.752 210.960,182.765 210.961,183.195 210.290 C 183.446 209.899,183.577 209.089,183.486 208.490 L 183.320 207.400 183.260 208.467 M216.649 208.215 C 216.512 208.573,216.418 209.256,216.441 209.733 C 216.467 210.281,216.603 210.086,216.810 209.203 C 217.160 207.716,217.065 207.133,216.649 208.215 M251.849 208.615 C 251.712 208.973,251.615 209.566,251.634 209.933 C 251.653 210.300,251.827 210.069,252.021 209.420 C 252.398 208.158,252.265 207.533,251.849 208.615 M289.873 208.553 C 289.723 208.945,289.611 209.566,289.625 209.933 C 289.642 210.375,289.781 210.274,290.037 209.634 C 290.249 209.103,290.361 208.482,290.285 208.254 C 290.209 208.027,290.024 208.161,289.873 208.553 M111.429 211.429 C 111.281 212.015,111.251 212.584,111.361 212.694 C 111.471 212.804,111.681 212.415,111.829 211.829 C 111.976 211.242,112.006 210.673,111.896 210.563 C 111.786 210.453,111.576 210.842,111.429 211.429 M215.856 212.084 C 215.721 212.588,215.627 213.360,215.646 213.800 C 215.665 214.240,215.845 213.898,216.046 213.040 C 216.436 211.378,216.270 210.540,215.856 212.084 M182.449 212.200 C 182.416 212.640,182.296 213.450,182.183 214.000 L 181.977 215.000 182.406 214.019 C 182.642 213.479,182.761 212.669,182.672 212.219 C 182.513 211.421,182.507 211.421,182.449 212.200 M251.029 212.629 C 250.881 213.215,250.838 213.772,250.932 213.866 C 251.027 213.960,251.224 213.558,251.371 212.971 C 251.519 212.385,251.562 211.828,251.468 211.734 C 251.373 211.640,251.176 212.042,251.029 212.629 M146.229 213.029 C 146.081 213.615,146.038 214.172,146.132 214.266 C 146.227 214.360,146.424 213.958,146.571 213.371 C 146.719 212.785,146.762 212.228,146.668 212.134 C 146.573 212.040,146.376 212.442,146.229 213.029 M289.073 212.553 C 288.923 212.945,288.811 213.566,288.825 213.933 C 288.842 214.375,288.981 214.274,289.237 213.634 C 289.449 213.103,289.561 212.482,289.485 212.254 C 289.409 212.027,289.224 212.161,289.073 212.553 M110.629 215.429 C 110.481 216.015,110.438 216.572,110.532 216.666 C 110.627 216.760,110.824 216.358,110.971 215.771 C 111.119 215.185,111.162 214.628,111.068 214.534 C 110.973 214.440,110.776 214.842,110.629 215.429 M250.200 216.000 C 250.048 216.691,250.007 217.341,250.109 217.442 C 250.211 217.544,250.409 217.053,250.550 216.350 C 250.691 215.647,250.731 214.998,250.641 214.908 C 250.550 214.817,250.352 215.309,250.200 216.000 M181.649 215.800 C 181.616 216.240,181.496 217.050,181.383 217.600 L 181.177 218.600 181.606 217.619 C 181.842 217.079,181.961 216.269,181.872 215.819 C 181.713 215.021,181.707 215.021,181.649 215.800 M145.450 216.850 C 145.117 218.517,145.440 218.840,145.800 217.200 C 145.952 216.509,145.993 215.859,145.891 215.758 C 145.789 215.656,145.591 216.147,145.450 216.850 M288.273 216.553 C 288.123 216.945,288.011 217.566,288.025 217.933 C 288.042 218.375,288.181 218.274,288.437 217.634 C 288.649 217.103,288.761 216.482,288.685 216.254 C 288.609 216.027,288.424 216.161,288.273 216.553 M109.829 219.029 C 109.681 219.615,109.638 220.172,109.732 220.266 C 109.827 220.360,110.024 219.958,110.171 219.371 C 110.319 218.785,110.362 218.228,110.268 218.134 C 110.173 218.040,109.976 218.442,109.829 219.029 M249.400 219.600 C 249.248 220.291,249.207 220.941,249.309 221.042 C 249.411 221.144,249.609 220.653,249.750 219.950 C 249.891 219.247,249.931 218.598,249.841 218.508 C 249.750 218.417,249.552 218.909,249.400 219.600 M180.854 219.867 C 180.825 220.344,180.696 221.064,180.570 221.467 C 180.352 222.161,180.364 222.162,180.796 221.488 C 181.047 221.097,181.175 220.377,181.081 219.888 C 180.909 219.001,180.909 219.001,180.854 219.867 M144.629 220.629 C 144.481 221.215,144.438 221.772,144.532 221.866 C 144.627 221.960,144.824 221.558,144.971 220.971 C 145.119 220.385,145.162 219.828,145.068 219.734 C 144.973 219.640,144.776 220.042,144.629 220.629 M287.473 220.553 C 287.323 220.945,287.211 221.566,287.225 221.933 C 287.242 222.375,287.381 222.274,287.637 221.634 C 287.849 221.103,287.961 220.482,287.885 220.254 C 287.809 220.027,287.624 220.161,287.473 220.553 M109.246 222.067 C 109.221 222.434,109.096 223.064,108.970 223.467 C 108.752 224.162,108.763 224.163,109.197 223.487 C 109.448 223.096,109.573 222.466,109.473 222.087 C 109.311 221.468,109.288 221.466,109.246 222.067 M248.600 223.200 C 248.448 223.891,248.407 224.541,248.509 224.642 C 248.611 224.744,248.809 224.253,248.950 223.550 C 249.091 222.847,249.131 222.198,249.041 222.108 C 248.950 222.017,248.752 222.509,248.600 223.200 M213.449 223.415 C 213.312 223.773,213.221 224.546,213.246 225.133 C 213.280 225.932,213.370 225.798,213.604 224.600 C 213.935 222.900,213.862 222.340,213.449 223.415 M180.054 223.867 C 180.025 224.344,179.896 225.064,179.770 225.467 C 179.552 226.161,179.564 226.162,179.996 225.488 C 180.247 225.097,180.375 224.377,180.281 223.888 C 180.109 223.001,180.109 223.001,180.054 223.867 M143.800 224.400 C 143.650 224.873,143.617 225.350,143.727 225.460 C 143.837 225.570,144.050 225.273,144.200 224.800 C 144.350 224.327,144.383 223.850,144.273 223.740 C 144.163 223.630,143.950 223.927,143.800 224.400 M286.600 225.600 C 286.448 226.291,286.407 226.941,286.509 227.042 C 286.611 227.144,286.809 226.653,286.950 225.950 C 287.091 225.247,287.131 224.598,287.041 224.508 C 286.950 224.417,286.752 224.909,286.600 225.600 M108.229 226.629 C 108.081 227.215,108.038 227.772,108.132 227.866 C 108.227 227.960,108.424 227.558,108.571 226.971 C 108.719 226.385,108.762 225.828,108.668 225.734 C 108.573 225.640,108.376 226.042,108.229 226.629 M247.869 226.756 C 247.721 227.495,247.620 228.482,247.644 228.950 C 247.668 229.418,247.847 228.990,248.042 228.000 C 248.237 227.010,248.338 226.023,248.267 225.806 C 248.196 225.590,248.017 226.017,247.869 226.756 M212.656 227.284 C 212.521 227.788,212.427 228.560,212.446 229.000 C 212.465 229.440,212.645 229.098,212.846 228.240 C 213.236 226.578,213.070 225.740,212.656 227.284 M179.249 227.400 C 179.216 227.840,179.096 228.650,178.983 229.200 L 178.777 230.200 179.206 229.219 C 179.442 228.679,179.561 227.869,179.472 227.419 C 179.313 226.621,179.307 226.621,179.249 227.400 M143.029 228.229 C 142.881 228.815,142.838 229.372,142.932 229.466 C 143.027 229.560,143.224 229.158,143.371 228.571 C 143.519 227.985,143.562 227.428,143.468 227.334 C 143.373 227.240,143.176 227.642,143.029 228.229 M285.852 229.700 C 285.513 230.965,285.552 235.706,285.906 236.258 C 286.068 236.510,286.201 234.935,286.202 232.758 C 286.203 228.422,286.201 228.399,285.852 229.700 M107.429 230.229 C 107.281 230.815,107.238 231.372,107.332 231.466 C 107.427 231.560,107.624 231.158,107.771 230.571 C 107.919 229.985,107.962 229.428,107.868 229.334 C 107.773 229.240,107.576 229.642,107.429 230.229 M178.449 231.000 C 178.416 231.440,178.296 232.250,178.183 232.800 L 177.977 233.800 178.406 232.819 C 178.642 232.279,178.761 231.469,178.672 231.019 C 178.513 230.221,178.507 230.221,178.449 231.000 M142.250 232.050 C 141.917 233.717,142.240 234.040,142.600 232.400 C 142.752 231.709,142.793 231.059,142.691 230.958 C 142.589 230.856,142.391 231.347,142.250 232.050 M247.056 231.684 C 246.921 232.188,246.827 232.960,246.846 233.400 C 246.865 233.840,247.045 233.498,247.246 232.640 C 247.636 230.978,247.470 230.140,247.056 231.684 M106.600 234.000 C 106.448 234.691,106.414 235.347,106.524 235.457 C 106.634 235.567,106.848 235.091,107.000 234.400 C 107.152 233.709,107.186 233.053,107.076 232.943 C 106.966 232.833,106.752 233.309,106.600 234.000 M177.654 235.067 C 177.625 235.544,177.496 236.264,177.370 236.667 C 177.152 237.361,177.164 237.362,177.596 236.688 C 177.847 236.297,177.975 235.577,177.881 235.088 C 177.709 234.201,177.709 234.201,177.654 235.067 M141.429 235.829 C 141.281 236.415,141.238 236.972,141.332 237.066 C 141.427 237.160,141.624 236.758,141.771 236.171 C 141.919 235.585,141.962 235.028,141.868 234.934 C 141.773 234.840,141.576 235.242,141.429 235.829 M210.854 236.000 C 210.819 236.550,210.696 237.450,210.583 238.000 L 210.377 239.000 210.807 238.015 C 211.043 237.474,211.165 236.574,211.078 236.015 L 210.920 235.000 210.854 236.000 M246.272 237.004 C 246.127 237.882,246.029 239.140,246.053 239.800 C 246.078 240.460,246.255 239.920,246.448 238.600 C 246.840 235.915,246.685 234.507,246.272 237.004 M105.829 237.829 C 105.681 238.415,105.638 238.972,105.732 239.066 C 105.827 239.160,106.024 238.758,106.171 238.171 C 106.319 237.585,106.362 237.028,106.268 236.934 C 106.173 236.840,105.976 237.242,105.829 237.829 M176.854 238.867 C 176.825 239.234,176.684 239.864,176.541 240.267 C 176.341 240.833,176.395 240.896,176.775 240.546 C 177.046 240.297,177.187 239.667,177.088 239.146 C 176.990 238.626,176.884 238.500,176.854 238.867 M140.649 239.415 C 140.512 239.773,140.415 240.366,140.434 240.733 C 140.453 241.100,140.627 240.869,140.821 240.220 C 141.198 238.958,141.065 238.333,140.649 239.415 M301.800 239.600 C 301.091 239.905,301.125 239.947,302.100 239.972 C 302.705 239.987,303.200 239.820,303.200 239.600 C 303.200 239.131,302.893 239.131,301.800 239.600 M299.300 240.448 C 298.585 240.654,298.000 240.911,298.000 241.019 C 298.000 241.309,300.138 240.753,300.580 240.348 C 301.016 239.949,301.030 239.948,299.300 240.448 M105.029 241.429 C 104.881 242.015,104.838 242.572,104.932 242.666 C 105.027 242.760,105.224 242.358,105.371 241.771 C 105.519 241.185,105.562 240.628,105.468 240.534 C 105.373 240.440,105.176 240.842,105.029 241.429 M292.300 241.493 C 293.235 241.577,294.765 241.577,295.700 241.493 C 296.635 241.409,295.870 241.340,294.000 241.340 C 292.130 241.340,291.365 241.409,292.300 241.493 M209.438 242.771 C 208.783 246.152,208.725 246.583,208.950 246.369 C 209.265 246.073,210.056 241.923,209.840 241.707 C 209.750 241.617,209.569 242.096,209.438 242.771 M176.054 242.667 C 176.025 243.144,175.896 243.864,175.770 244.267 C 175.552 244.961,175.564 244.962,175.996 244.288 C 176.247 243.897,176.375 243.177,176.281 242.688 C 176.109 241.801,176.109 241.801,176.054 242.667 M301.850 243.250 C 301.709 243.953,301.669 244.602,301.759 244.692 C 301.850 244.783,302.048 244.291,302.200 243.600 C 302.352 242.909,302.393 242.259,302.291 242.158 C 302.189 242.056,301.991 242.547,301.850 243.250 M139.829 243.429 C 139.681 244.015,139.638 244.572,139.732 244.666 C 139.827 244.760,140.024 244.358,140.171 243.771 C 140.319 243.185,140.362 242.628,140.268 242.534 C 140.173 242.440,139.976 242.842,139.829 243.429 M104.200 245.200 C 104.048 245.891,104.014 246.547,104.124 246.657 C 104.234 246.767,104.448 246.291,104.600 245.600 C 104.752 244.909,104.786 244.253,104.676 244.143 C 104.566 244.033,104.352 244.509,104.200 245.200 M301.050 246.850 C 300.909 247.553,300.869 248.202,300.959 248.292 C 301.050 248.383,301.248 247.891,301.400 247.200 C 301.552 246.509,301.593 245.859,301.491 245.758 C 301.389 245.656,301.191 246.147,301.050 246.850 M175.249 246.400 C 175.216 246.730,175.089 247.450,174.967 248.000 C 174.775 248.864,174.807 248.903,175.199 248.288 C 175.448 247.897,175.575 247.177,175.481 246.688 C 175.386 246.200,175.282 246.070,175.249 246.400 M139.073 246.953 C 138.923 247.345,138.811 247.966,138.825 248.333 C 138.842 248.775,138.981 248.674,139.237 248.034 C 139.449 247.503,139.561 246.882,139.485 246.654 C 139.409 246.427,139.224 246.561,139.073 246.953 M246.028 248.633 C 246.044 249.495,246.209 250.560,246.396 251.000 C 246.608 251.498,246.651 250.969,246.512 249.600 C 246.244 246.965,245.989 246.457,246.028 248.633 M103.429 249.029 C 103.281 249.615,103.238 250.172,103.332 250.266 C 103.427 250.360,103.624 249.958,103.771 249.371 C 103.919 248.785,103.962 248.228,103.868 248.134 C 103.773 248.040,103.576 248.442,103.429 249.029 M300.250 250.450 C 300.109 251.153,300.069 251.802,300.159 251.892 C 300.250 251.983,300.448 251.491,300.600 250.800 C 300.752 250.109,300.793 249.459,300.691 249.358 C 300.589 249.256,300.391 249.747,300.250 250.450 M138.200 251.200 C 138.048 251.891,138.007 252.541,138.109 252.642 C 138.211 252.744,138.409 252.253,138.550 251.550 C 138.883 249.883,138.560 249.560,138.200 251.200 M174.446 250.467 C 174.421 250.834,174.296 251.464,174.170 251.867 C 173.952 252.562,173.963 252.563,174.397 251.887 C 174.648 251.496,174.773 250.866,174.673 250.487 C 174.511 249.868,174.488 249.866,174.446 250.467 M207.654 251.200 C 207.619 251.750,207.496 252.650,207.383 253.200 L 207.177 254.200 207.607 253.215 C 207.843 252.674,207.965 251.774,207.878 251.215 L 207.720 250.200 207.654 251.200 M102.600 252.800 C 102.448 253.491,102.407 254.141,102.509 254.242 C 102.611 254.344,102.809 253.853,102.950 253.150 C 103.283 251.483,102.960 251.160,102.600 252.800 M246.806 253.033 C 246.809 253.455,246.995 254.070,247.218 254.400 C 247.515 254.838,247.552 254.676,247.356 253.800 C 247.027 252.329,246.798 252.010,246.806 253.033 M299.450 254.050 C 299.309 254.753,299.269 255.402,299.359 255.492 C 299.450 255.583,299.648 255.091,299.800 254.400 C 299.952 253.709,299.993 253.059,299.891 252.958 C 299.789 252.856,299.591 253.347,299.450 254.050 M173.646 254.067 C 173.621 254.434,173.496 255.064,173.370 255.467 C 173.152 256.162,173.163 256.163,173.597 255.487 C 173.848 255.096,173.973 254.466,173.873 254.087 C 173.711 253.468,173.688 253.466,173.646 254.067 M137.449 254.615 C 137.312 254.973,137.215 255.566,137.234 255.933 C 137.253 256.300,137.427 256.069,137.621 255.420 C 137.998 254.158,137.865 253.533,137.449 254.615 M206.860 255.267 C 206.827 255.854,206.696 256.664,206.570 257.067 C 206.352 257.760,206.365 257.761,206.795 257.090 C 207.046 256.699,207.177 255.889,207.086 255.290 L 206.920 254.200 206.860 255.267 M101.849 256.215 C 101.712 256.573,101.615 257.166,101.634 257.533 C 101.653 257.900,101.827 257.669,102.021 257.020 C 102.398 255.758,102.265 255.133,101.849 256.215 M298.846 256.867 C 298.821 257.234,298.696 257.864,298.570 258.267 C 298.352 258.962,298.363 258.963,298.797 258.287 C 299.048 257.896,299.173 257.266,299.073 256.887 C 298.911 256.268,298.888 256.266,298.846 256.867 M172.846 258.067 C 172.821 258.434,172.696 259.064,172.570 259.467 C 172.352 260.162,172.363 260.163,172.797 259.487 C 173.048 259.096,173.173 258.466,173.073 258.087 C 172.911 257.468,172.888 257.466,172.846 258.067 M206.054 258.800 C 206.019 259.350,205.896 260.250,205.783 260.800 L 205.577 261.800 206.007 260.815 C 206.243 260.274,206.365 259.374,206.278 258.815 L 206.120 257.800 206.054 258.800 M101.029 260.229 C 100.881 260.815,100.838 261.372,100.932 261.466 C 101.027 261.560,101.224 261.158,101.371 260.571 C 101.519 259.985,101.562 259.428,101.468 259.334 C 101.373 259.240,101.176 259.642,101.029 260.229 M297.850 261.250 C 297.709 261.953,297.669 262.602,297.759 262.692 C 297.850 262.783,298.048 262.291,298.200 261.600 C 298.352 260.909,298.393 260.259,298.291 260.158 C 298.189 260.056,297.991 260.547,297.850 261.250 M172.054 261.867 C 172.025 262.344,171.896 263.064,171.770 263.467 C 171.552 264.161,171.564 264.162,171.996 263.488 C 172.247 263.097,172.375 262.377,172.281 261.888 C 172.109 261.001,172.109 261.001,172.054 261.867 M135.873 262.153 C 135.723 262.545,135.611 263.166,135.625 263.533 C 135.642 263.975,135.781 263.874,136.037 263.234 C 136.249 262.703,136.361 262.082,136.285 261.854 C 136.209 261.627,136.024 261.761,135.873 262.153 M251.630 262.682 C 252.995 264.205,253.296 264.497,254.412 265.387 C 254.956 265.820,254.416 265.145,253.214 263.887 C 250.998 261.569,249.850 260.696,251.630 262.682 M100.200 264.000 C 100.048 264.691,100.007 265.341,100.109 265.442 C 100.211 265.544,100.409 265.053,100.550 264.350 C 100.883 262.683,100.560 262.360,100.200 264.000 M134.900 266.500 C 134.470 267.675,134.480 267.726,135.012 267.024 C 135.521 266.352,135.821 265.200,135.488 265.200 C 135.426 265.200,135.161 265.785,134.900 266.500 M171.200 266.000 C 171.200 266.440,171.187 266.930,171.170 267.090 C 171.154 267.250,171.338 267.416,171.580 267.460 C 171.822 267.504,171.862 267.457,171.668 267.356 C 171.475 267.255,171.401 266.728,171.505 266.186 C 171.608 265.644,171.582 265.200,171.447 265.200 C 171.311 265.200,171.200 265.560,171.200 266.000 M256.000 266.535 C 256.000 266.806,258.874 268.459,259.046 268.287 C 259.126 268.208,258.473 267.739,257.596 267.246 C 256.718 266.752,256.000 266.433,256.000 266.535 M288.400 269.218 C 287.962 269.515,288.124 269.552,289.000 269.356 C 290.471 269.027,290.790 268.798,289.767 268.806 C 289.345 268.809,288.730 268.995,288.400 269.218 M285.400 270.000 C 284.381 270.438,285.432 270.438,286.800 270.000 C 287.604 269.743,287.643 269.677,287.000 269.668 C 286.560 269.662,285.840 269.811,285.400 270.000 M266.200 270.800 C 267.892 271.231,269.344 271.231,268.000 270.800 C 267.450 270.624,266.550 270.483,266.000 270.487 C 265.102 270.494,265.122 270.526,266.200 270.800 M280.000 270.800 C 278.001 271.221,280.052 271.238,282.400 270.820 C 284.024 270.532,284.063 270.500,282.800 270.503 C 282.030 270.504,280.770 270.638,280.000 270.800 M271.913 271.495 C 273.076 271.576,274.876 271.576,275.913 271.493 C 276.951 271.411,276.000 271.345,273.800 271.346 C 271.600 271.347,270.751 271.414,271.913 271.495 M99.900 398.700 C 154.955 398.756,245.045 398.756,300.100 398.700 C 355.155 398.644,310.110 398.598,200.000 398.598 C 89.890 398.598,44.845 398.644,99.900 398.700 " stroke="none" fill="#94c4f4" fill-rule="evenodd"></path></g></svg>